<svg width="241" height="240" viewBox="0 0 241 240" fill="none" xmlns="http://www.w3.org/2000/svg">
<g clip-path="url(#clip0_7_2705)">
<path d="M108.827 236.81C108.827 236.81 152.094 243.759 186.027 213.353C219.96 182.947 229.295 133.514 237.905 93.702C246.515 53.8904 228.218 18.4651 194.399 7.11273C160.58 -4.2396 145.956 24.6307 104.24 33.7494C62.525 42.868 49.8367 38.8874 20.5175 69.5966C-8.8017 100.306 -2.04655 158.533 35.1041 195.57C72.2548 232.607 108.827 236.81 108.827 236.81Z" fill="#FFAC4B"/>
<path opacity="0.7" d="M108.827 236.81C108.827 236.81 152.094 243.759 186.027 213.353C219.96 182.947 229.295 133.514 237.905 93.702C246.515 53.8904 228.218 18.4651 194.399 7.11273C160.58 -4.2396 145.956 24.6307 104.24 33.7494C62.525 42.868 49.8367 38.8874 20.5175 69.5966C-8.8017 100.306 -2.04655 158.533 35.1041 195.57C72.2548 232.607 108.827 236.81 108.827 236.81Z" fill="white"/>
<path d="M127 222C173.944 222 212 218.418 212 214C212 209.582 173.944 206 127 206C80.0558 206 42 209.582 42 214C42 218.418 80.0558 222 127 222Z" fill="#263238"/>
<path d="M193.416 195.165C193.416 195.165 196.575 195.906 198.057 198.318C199.539 200.73 200.842 203.726 203.254 203.726C205.666 203.726 199.171 205.208 194.53 203.537C189.89 201.866 182.28 200.757 182.28 200.757C182.28 200.757 187.288 195.527 193.416 195.165Z" fill="#242424" stroke="#263238" stroke-linecap="round" stroke-linejoin="round"/>
<path d="M168.727 206.106C168.727 206.106 175.217 209.448 180.42 207.404C185.623 205.36 185.828 199.794 188.592 197.566C191.356 195.338 193.416 195.154 193.416 195.154C193.416 195.154 180.236 196.825 173.74 195.154C169.407 194.111 165.349 192.149 161.842 189.399C160.171 188.101 158.683 187.171 158.683 187.171C158.683 187.171 158.142 193.12 160.912 198.496C162.667 201.78 165.397 204.439 168.727 206.106Z" fill="#E0AC69" stroke="#263238" stroke-linecap="round" stroke-linejoin="round"/>
<path d="M180.42 207.404C185.617 205.365 185.828 199.794 188.592 197.566C191.15 195.516 193.081 195.197 193.373 195.159C192.919 195.213 188.835 195.7 184.216 195.851C182.015 198.556 180.209 202.136 176.866 204.418C171.458 208.118 164.822 203.185 164.822 203.185L164.697 203.337C165.901 204.448 167.258 205.38 168.727 206.106C168.727 206.106 175.222 209.448 180.42 207.404Z" fill="#FFAC4B" stroke="#263238" stroke-linecap="round" stroke-linejoin="round"/>
<path d="M144.962 112.913C144.962 112.913 150.911 126.277 150.911 145.769C150.911 165.261 162.047 189.767 163.535 194.986C165.022 200.205 169.846 206.122 169.846 206.122C169.846 206.122 157.407 204.824 149.981 200.925C142.555 197.025 132.279 194.218 132.279 183.266C132.279 172.314 131.598 140.761 129.37 126.277C127.141 111.793 132.712 107.531 137.169 108.272C141.625 109.013 144.962 112.913 144.962 112.913Z" fill="#242424" stroke="#263238" stroke-linecap="round" stroke-linejoin="round"/>
<path d="M72.5645 175.662C72.5645 175.662 73.1053 180.118 78.319 180.118C83.5328 180.118 85.7286 172.503 86.3019 171.205C86.8752 169.907 73.2892 174.358 72.5645 175.662Z" fill="#242424" stroke="#263238" stroke-linecap="round" stroke-linejoin="round"/>
<path d="M108.763 48.125C108.763 48.125 99.2931 46.4538 92.9814 55.5508C86.6697 64.6478 84.8146 73.9395 87.5729 79.6833C90.3313 85.4271 88.5032 88.4072 84.2305 89.7052C79.9578 91.0032 70.8662 86.5521 65.3009 95.4598C59.7356 104.367 63.2565 110.311 66.4151 114.768C69.5736 119.225 62.5156 119.965 58.059 126.093C53.6025 132.221 56.9449 154.309 80.1525 150.042C103.36 145.775 104.491 135.563 105.956 126.093C107.422 116.623 114.68 109.013 122.663 109.387C130.646 109.76 137.331 106.417 136.774 97.6881C136.217 88.9588 129.532 88.034 129.905 82.8364C130.278 77.6389 134.919 72.9985 131.392 62.9766C127.866 52.9548 116.746 47.0109 108.763 48.125Z" fill="#263238" stroke="#263238" stroke-linecap="round" stroke-linejoin="round"/>
<path d="M120.072 88.8398C120.072 88.8398 120.813 98.6562 121.738 99.9488C122.663 101.241 126.741 103.286 132.479 105.135C138.218 106.985 141.182 116.244 139.148 126.618C137.114 136.991 132.658 149.761 133.199 152.357C133.74 154.953 141.344 162.909 139.148 173.99C136.952 185.072 136.027 183.461 136.027 183.461C136.027 183.461 139.175 181.611 141.393 183.277C143.61 184.943 145.838 185.873 148.802 185.5C151.766 185.126 155.292 185.873 158.429 189.945C161.566 194.018 163.059 198.648 167.131 200.87C171.204 203.093 186.391 204.943 186.391 205.868C186.391 206.793 178.987 211.422 170.468 213.645C161.95 215.868 143.599 216.258 132.112 216.609C120.624 216.961 110.262 218.275 98.7794 219.016C87.2972 219.757 85.7991 219.557 76.3722 215.311C66.9452 211.065 63.3919 209.94 62.1155 203.093C60.8391 196.246 65.9014 191.195 70.8177 186.425C75.3446 182.049 91.9106 163.466 93.9659 158.841C96.0211 154.217 97.6652 150.507 98.5955 147.916C99.5257 145.326 95.0746 133.66 92.8517 125.693C90.6288 117.726 92.1107 112.55 92.1107 112.55C92.1107 112.55 82.1105 108.846 78.4111 103.659C74.7118 98.4723 77.297 96.8065 83.4085 95.3246C89.5201 93.8427 94.3336 94.2429 97.6652 94.2429C100.997 94.2429 106 95.9087 106.924 95.9087C107.849 95.9087 106.384 90.3542 106.384 90.3542C108.564 91.2364 110.88 91.7377 113.231 91.8361C116.557 91.8037 120.072 88.8398 120.072 88.8398Z" fill="#FFAC4B" stroke="#263238" stroke-linecap="round" stroke-linejoin="round"/>
<path d="M121.738 99.9758C120.813 98.6832 120.072 88.8669 120.072 88.8669C120.072 88.8669 116.557 91.8307 113.22 91.8307C110.869 91.7322 108.553 91.231 106.373 90.3488C106.373 90.3488 107.849 95.9033 106.913 95.9033C106.291 95.9033 103.809 95.1461 101.24 94.6539C101.056 97.6232 100.385 114.368 108.352 116.288C114.891 117.845 120.965 109.619 125.005 102.226C123.328 101.344 122.176 100.565 121.738 99.9758Z" fill="#FFDBAC" stroke="#263238" stroke-linecap="round" stroke-linejoin="round"/>
<path d="M167.104 200.87C163.032 198.648 161.55 194.018 158.402 189.945C155.254 185.873 151.739 185.132 148.775 185.5C145.811 185.867 143.588 184.959 141.365 183.277C139.743 182.049 137.58 182.736 136.584 183.174C136.755 182.896 136.899 182.602 137.017 182.298L132.149 188.101C132.149 188.101 134.378 189.399 137.904 188.842C141.43 188.285 146.444 189.383 149.04 194.97C151.636 200.557 150.901 200.535 153.129 202.953C155.357 205.37 164.081 209.984 168.348 211.303C172.134 212.455 174.027 212.439 174.4 212.423C181.128 210.038 186.358 206.647 186.358 205.868C186.364 204.943 171.182 203.093 167.104 200.87Z" fill="white" stroke="#263238" stroke-linecap="round" stroke-linejoin="round"/>
<path d="M76.1665 201.812C77.0799 199.558 78.317 197.45 79.8388 195.554C85.3068 188.712 106.411 175.234 114.615 169.177" stroke="#263238" stroke-linecap="round" stroke-linejoin="round"/>
<path d="M74.5654 209.227C74.5792 207.938 74.7389 206.655 75.0414 205.403" stroke="#263238" stroke-linecap="round" stroke-linejoin="round"/>
<path d="M119.656 164.753C120.581 164.628 121.511 164.536 122.43 164.488" stroke="#263238" stroke-linecap="round" stroke-linejoin="round"/>
<path d="M99.1797 171.908C104.241 169.173 109.615 167.059 115.183 165.613" stroke="#263238" stroke-linecap="round" stroke-linejoin="round"/>
<path d="M136.027 183.461C136.027 183.461 121.787 202.931 105.821 208.518" stroke="#263238" stroke-linecap="round" stroke-linejoin="round"/>
<path d="M118.536 201.114C118.536 201.114 115.075 206.647 110.618 209.805" stroke="#263238" stroke-linecap="round" stroke-linejoin="round"/>
<path d="M126.714 208.956C134.589 207.501 148.034 204.445 157.585 199.221" stroke="#263238" stroke-linecap="round" stroke-linejoin="round"/>
<path d="M120.272 210.005C120.272 210.005 121.381 209.859 123.263 209.556" stroke="#263238" stroke-linecap="round" stroke-linejoin="round"/>
<path d="M135.487 106.044C135.487 106.044 130.657 109.387 124.534 116.812C118.412 124.238 109.526 153.011 103.75 162.665C97.9735 172.319 83.8845 175.289 79.4117 175.472C74.9389 175.656 72.543 175.662 72.543 175.662C72.543 175.662 86.0641 166.749 91.1048 158.955C96.1455 151.161 98.9038 133.703 106.33 122.383C113.755 111.063 122.663 100.29 122.663 100.29C122.663 100.29 131.041 102.68 135.487 106.044Z" fill="#E0AC69" stroke="#263238" stroke-linecap="round" stroke-linejoin="round"/>
<path d="M124.388 100.825C123.345 100.479 122.685 100.284 122.685 100.284C122.685 100.284 113.777 111.052 106.351 122.378C98.9255 133.703 96.1401 151.151 91.1265 158.95C89.966 160.684 88.6402 162.301 87.1675 163.779C92.1811 161.356 94.5392 157.5 96.9027 152.016C99.8557 145.201 108.331 124.53 113.582 116.19C117.471 110.036 122.187 103.713 124.388 100.825Z" fill="#FFAC4B" stroke="#263238" stroke-linecap="round" stroke-linejoin="round"/>
<path d="M103.75 162.665C109.504 153.011 118.417 124.238 124.545 116.812C130.673 109.387 135.486 106.044 135.486 106.044C134.75 105.503 133.98 105.008 133.182 104.562C127.512 107.822 122.866 112.603 119.769 118.365C112.668 131.345 105.561 157.9 94.447 165.959C86.7779 171.497 80.2823 172.482 76.994 172.557C74.4087 174.483 72.5645 175.7 72.5645 175.7C72.5645 175.7 74.9766 175.7 79.4332 175.51C83.8897 175.321 97.995 172.319 103.75 162.665Z" fill="#FFAC4B" stroke="#263238" stroke-linecap="round" stroke-linejoin="round"/>
<path d="M121.738 74.3993C121.738 74.3993 122.479 69.9535 124.518 70.6945C126.557 71.4354 125.811 75.1402 125.259 76.9899C125.057 77.5634 124.738 78.0892 124.324 78.5348C123.91 78.9804 123.409 79.3363 122.852 79.5806L121.738 74.3993Z" fill="#FFDBAC" stroke="#263238" stroke-linecap="round" stroke-linejoin="round"/>
<path d="M98.5845 79.9916C98.5845 79.9916 95.3881 76.8168 94.1658 78.607C92.9435 80.3972 95.7072 82.9717 97.2432 84.1507C97.7434 84.4961 98.3093 84.7348 98.9057 84.8521C99.5021 84.9693 100.116 84.9625 100.71 84.8322L98.5845 79.9916Z" fill="#FFDBAC" stroke="#263238" stroke-linecap="round" stroke-linejoin="round"/>
<path d="M107.297 59.7694C107.297 59.7694 101.927 71.0623 96.1831 76.4328C96.1831 76.4328 99.8879 85.6921 101.927 89.5808C103.966 93.4695 111.186 96.4333 114.907 96.4333C118.628 96.4333 122.317 90.3217 123.242 87.174C124.166 84.0263 121.392 67.1628 121.392 67.1628C121.392 67.1628 109.888 63.4742 107.297 59.7694Z" fill="#FFDBAC" stroke="#263238" stroke-linecap="round" stroke-linejoin="round"/>
<path d="M114.751 76.5897C114.561 76.2655 114.446 75.9036 114.412 75.5297C114.379 75.1558 114.428 74.7791 114.556 74.4263C114.793 73.6996 115.265 73.072 115.897 72.6415C116.51 72.2229 117.237 72.0037 117.979 72.0141C118.333 72.0209 118.685 72.0774 119.023 72.1818C119.369 72.3101 119.692 72.4927 119.98 72.7227V72.8741C119.407 72.9141 118.839 73.0064 118.282 73.1499C117.732 73.2977 117.211 73.5372 116.741 73.8584C115.793 74.5079 115.133 75.4978 114.897 76.6222L114.751 76.5897Z" fill="#263238"/>
<path d="M100.873 77.5524C100.934 77.1791 101.078 76.8241 101.293 76.5128C101.508 76.2015 101.789 75.9415 102.116 75.7514C102.758 75.3359 103.519 75.1456 104.28 75.2105C105.02 75.2807 105.721 75.5772 106.286 76.0597C106.554 76.2906 106.787 76.5583 106.979 76.8547C107.162 77.1761 107.291 77.5249 107.363 77.8877L107.271 78.0067C106.802 77.6699 106.304 77.3749 105.783 77.1251C105.27 76.8932 104.722 76.7453 104.161 76.6871C103.017 76.5812 101.876 76.9201 100.975 77.6335L100.873 77.5524Z" fill="#263238"/>
<path d="M100.261 73.8422C100.261 73.8422 100.629 70.3213 104.891 70.1374" stroke="#263238" stroke-width="2" stroke-linecap="round" stroke-linejoin="round"/>
<path d="M111.927 68.2877C112.92 67.9811 113.969 67.905 114.995 68.0653C116.022 68.2255 116.998 68.6179 117.85 69.2126" stroke="#263238" stroke-width="2" stroke-linecap="round" stroke-linejoin="round"/>
<path d="M110.261 82.9176C111.11 83.126 111.978 83.2492 112.852 83.2854C113.961 83.2854 114.702 81.4357 114.702 81.4357" stroke="#263238" stroke-linecap="round" stroke-linejoin="round"/>
<path d="M110.261 85.876C110.261 85.876 114.334 87.3579 116.557 83.6531" stroke="#263238" stroke-linecap="round" stroke-linejoin="round"/>
<path d="M122.414 124.725C122.414 124.725 122.885 118.008 126.005 119.1C129.126 120.193 126.941 127.375 126.005 129.095C125.07 130.815 122.257 127.559 122.414 124.725Z" fill="white" stroke="#263238" stroke-linecap="round" stroke-linejoin="round"/>
<path d="M106.486 101.458C109.206 103.701 111.393 106.52 112.89 109.711C114.368 113.233 115.62 116.846 116.638 120.528C116.638 120.528 120.386 120.057 124.913 125.369C129.44 130.68 129.829 139.225 127.569 144.109C123.664 152.541 111.019 150.821 104.772 150.35C98.5252 149.88 95.2477 145.201 92.4353 138.641C89.6229 132.08 91.186 118.343 92.1217 114.595C93.0573 110.847 93.2033 107.883 92.1217 104.135C91.04 100.387 98.8389 96.3035 106.486 101.458Z" fill="white" stroke="#263238" stroke-linecap="round" stroke-linejoin="round"/>
<path d="M122.101 127.067C122.101 127.067 124.913 123.319 126.319 124.098C127.725 124.876 128.818 129.095 128.818 129.095C128.818 129.095 129.597 123.146 132.095 123.319C134.594 123.492 134.259 128.624 132.566 135.028C130.873 141.432 128.039 140.182 127.569 138.462C127.314 137.509 127.001 136.571 126.633 135.655" fill="white"/>
<path d="M122.101 127.067C122.101 127.067 124.913 123.319 126.319 124.098C127.725 124.876 128.818 129.095 128.818 129.095C128.818 129.095 129.597 123.146 132.095 123.319C134.594 123.492 134.259 128.624 132.566 135.028C130.873 141.432 128.039 140.182 127.569 138.462C127.314 137.509 127.001 136.571 126.633 135.655" stroke="#263238" stroke-linecap="round" stroke-linejoin="round"/>
<path d="M92.6135 119.987C92.6135 119.987 94.2361 121.204 100.726 121.658C107.216 122.113 111.83 118.191 111.57 120.252C110.488 128.906 96.1993 129.154 91.7806 123.324C90.9423 122.232 90.8828 120.025 92.6135 119.987Z" fill="#263238" stroke="#263238" stroke-linecap="round" stroke-linejoin="round"/>
<path d="M92.9274 128.332C92.9274 128.332 94.55 129.549 101.04 130.004C107.53 130.458 112.144 126.537 111.889 128.597C110.808 137.251 96.5132 137.5 92.0999 131.669C91.2562 130.588 91.1967 128.381 92.9274 128.332Z" fill="#263238" stroke="#263238" stroke-linecap="round" stroke-linejoin="round"/>
<path d="M94.9773 138.068C94.9773 138.068 96.6701 139.149 103.166 139.149C109.661 139.149 113.983 134.887 113.88 136.953C113.431 145.656 99.1959 146.959 94.3661 141.464C93.4737 140.436 93.252 138.241 94.9773 138.068Z" fill="#263238" stroke="#263238" stroke-linecap="round" stroke-linejoin="round"/>
<path d="M102.495 145.991C102.495 145.991 104.361 146.754 110.743 145.537C117.125 144.32 120.597 139.355 120.873 141.41C122.03 150.064 108.277 153.947 102.522 149.436C101.451 148.598 100.829 146.489 102.495 145.991Z" fill="#263238" stroke="#263238" stroke-linecap="round" stroke-linejoin="round"/>
<path d="M134.518 122.729L135.059 148.095C135.059 148.095 119.505 149.577 114.507 148.836C109.51 148.095 107.476 147.17 107.476 147.17C106.45 145.625 105.521 144.018 104.696 142.356C103.771 140.317 103.03 140.317 101.549 138.468C100.067 136.618 99.1418 135.32 99.1418 137.354C99.1418 139.387 100.256 139.95 100.624 140.691C100.877 141.402 101.003 142.153 100.997 142.908C100.997 142.908 96.5511 141.799 95.2531 141.242C93.9551 140.685 92.8463 139.95 92.6624 140.875C92.4786 141.799 92.6624 142.356 93.4034 144.022C94.1444 145.688 93.4034 148.652 94.1444 150.134C94.8853 151.616 97.6598 153.649 98.9579 154.206C100.256 154.763 106.367 154.39 108.401 154.574C110.435 154.758 121.181 156.797 127.844 158.095C134.508 159.393 141.733 160.318 143.772 159.204C145.811 158.09 146.92 157.354 147.288 155.504C147.656 153.655 148.213 134.763 148.213 129.576C148.213 124.39 148.029 117.359 146.547 114.022C145.694 112.288 144.474 110.76 142.971 109.546C141.468 108.332 139.719 107.46 137.845 106.991C134.324 106.25 135.492 106.05 135.492 106.05" fill="#FFDBAC"/>
<path d="M134.518 122.729L135.059 148.095C135.059 148.095 119.505 149.577 114.507 148.836C109.51 148.095 107.476 147.17 107.476 147.17C106.45 145.625 105.521 144.018 104.696 142.356C103.771 140.317 103.03 140.317 101.549 138.468C100.067 136.618 99.1418 135.32 99.1418 137.354C99.1418 139.387 100.256 139.95 100.624 140.691C100.877 141.402 101.003 142.153 100.997 142.908C100.997 142.908 96.5511 141.799 95.2531 141.242C93.9551 140.685 92.8463 139.95 92.6624 140.875C92.4786 141.799 92.6624 142.356 93.4034 144.022C94.1444 145.688 93.4034 148.652 94.1444 150.134C94.8853 151.616 97.6598 153.649 98.9579 154.206C100.256 154.763 106.367 154.39 108.401 154.574C110.435 154.758 121.181 156.797 127.844 158.095C134.508 159.393 141.733 160.318 143.772 159.204C145.811 158.09 146.92 157.354 147.288 155.504C147.656 153.655 148.213 134.763 148.213 129.576C148.213 124.39 148.029 117.359 146.547 114.022C145.694 112.288 144.474 110.76 142.971 109.546C141.468 108.332 139.719 107.46 137.845 106.991C134.324 106.25 135.492 106.05 135.492 106.05" stroke="#263238" stroke-linecap="round" stroke-linejoin="round"/>
<path d="M133.323 119.846L134.767 133.946C137.06 132.973 142.231 131.107 147.504 131.502L148.207 131.567C148.207 130.782 148.207 130.106 148.207 129.576C148.207 124.395 148.023 117.359 146.541 114.022C145.689 112.288 144.469 110.76 142.966 109.546C141.463 108.332 139.714 107.46 137.839 106.991C137.298 106.882 135.676 106.845 135.335 106.758" fill="#FFAC4B"/>
<path d="M133.323 119.846L134.767 133.946C137.06 132.973 142.231 131.107 147.504 131.502L148.207 131.567C148.207 130.782 148.207 130.106 148.207 129.576C148.207 124.395 148.023 117.359 146.541 114.022C145.689 112.288 144.469 110.76 142.966 109.546C141.463 108.332 139.714 107.46 137.839 106.991C137.298 106.882 135.676 106.845 135.335 106.758" stroke="#263238" stroke-linecap="round" stroke-linejoin="round"/>
<path d="M111.186 158.728C110.777 158.728 110.385 158.568 110.092 158.282C109.8 157.995 109.632 157.606 109.623 157.197L109.439 147.386C109.424 147.174 109.451 146.961 109.52 146.76C109.59 146.559 109.699 146.375 109.842 146.217C109.985 146.06 110.159 145.934 110.353 145.846C110.546 145.758 110.756 145.711 110.968 145.707C111.181 145.703 111.392 145.742 111.589 145.822C111.786 145.903 111.964 146.022 112.113 146.174C112.262 146.326 112.378 146.506 112.455 146.704C112.532 146.903 112.568 147.114 112.56 147.327L112.744 157.138C112.748 157.343 112.712 157.547 112.637 157.738C112.563 157.929 112.451 158.103 112.309 158.251C112.167 158.398 111.997 158.517 111.809 158.598C111.621 158.68 111.418 158.724 111.213 158.728H111.186Z" fill="white" stroke="#263238" stroke-linecap="round" stroke-linejoin="round"/>
<path d="M81.1853 96.0601C81.1853 96.0601 67.2964 97.7313 66.3716 101.431C65.4467 105.13 70.4442 112.172 81.1853 115.493C91.9265 118.813 108.59 121.442 110.629 121.983C112.668 122.524 112.295 125.872 112.295 125.872L111.754 133.649C111.754 133.649 109.163 141.221 109.72 141.426C110.277 141.632 111.013 140.885 111.943 138.646C112.785 136.839 113.775 135.104 114.902 133.46C114.902 133.46 116.016 133.092 116.016 134.758C116.016 136.423 114.534 143.276 114.534 143.276C114.534 143.276 115.459 144.574 116.016 143.092C116.573 141.61 119.163 135.52 119.163 135.52V143.481C119.163 143.481 119.904 144.022 120.462 143.855C121.019 143.687 121.922 134.049 121.922 134.049C122.198 134.446 122.51 134.817 122.852 135.158C123.393 135.699 124.145 143.124 124.145 143.124C124.145 143.124 125.075 143.665 125.443 142.751C125.81 141.837 124.902 134.606 124.702 132.567C124.502 130.528 120.256 122.015 119.147 119.976C118.039 117.937 115.075 116.088 111.927 115.163C109.969 114.589 90.834 105.346 82.4834 99.792" fill="#FFDBAC"/>
<path d="M81.1853 96.0601C81.1853 96.0601 67.2964 97.7313 66.3716 101.431C65.4467 105.13 70.4442 112.172 81.1853 115.493C91.9265 118.813 108.59 121.442 110.629 121.983C112.668 122.524 112.295 125.872 112.295 125.872L111.754 133.649C111.754 133.649 109.163 141.221 109.72 141.426C110.277 141.632 111.013 140.885 111.943 138.646C112.785 136.839 113.775 135.104 114.902 133.46C114.902 133.46 116.016 133.092 116.016 134.758C116.016 136.423 114.534 143.276 114.534 143.276C114.534 143.276 115.459 144.574 116.016 143.092C116.573 141.61 119.163 135.52 119.163 135.52V143.481C119.163 143.481 119.904 144.022 120.462 143.855C121.019 143.687 121.922 134.049 121.922 134.049C122.198 134.446 122.51 134.817 122.852 135.158C123.393 135.699 124.145 143.124 124.145 143.124C124.145 143.124 125.075 143.665 125.443 142.751C125.81 141.837 124.902 134.606 124.702 132.567C124.502 130.528 120.256 122.015 119.147 119.976C118.039 117.937 115.075 116.088 111.927 115.163C109.969 114.589 90.834 105.346 82.4834 99.792" stroke="#263238" stroke-linecap="round" stroke-linejoin="round"/>
<path d="M110.261 125.028H110.105C109.693 124.985 109.315 124.782 109.052 124.462C108.79 124.142 108.665 123.731 108.704 123.319C109.402 116.158 113.68 114.411 115.875 114.508C116.275 114.541 116.647 114.726 116.914 115.025C117.182 115.324 117.324 115.714 117.311 116.115C117.299 116.516 117.133 116.897 116.847 117.178C116.562 117.46 116.179 117.622 115.778 117.629C115.41 117.629 112.376 117.824 111.814 123.627C111.775 124.011 111.594 124.368 111.308 124.627C111.021 124.885 110.648 125.028 110.261 125.028Z" fill="white" stroke="#263238" stroke-linecap="round" stroke-linejoin="round"/>
<path d="M96.3726 107.915C93.0356 107.915 85.8153 107.375 84.3334 105.135C82.8515 102.896 84.8742 99.9488 84.8742 99.9488C84.8742 99.9488 82.8352 96.2494 83.5762 94.2104C84.3172 92.1714 90.8019 93.6696 90.8019 93.6696L98.3737 91.2628C98.3737 91.2628 101.954 88.0772 103.961 88.0772C105.967 88.0772 105.075 93.0801 105.075 93.0801C105.075 93.0801 108.59 93.821 109.521 97.1526C110.451 100.484 107.665 102.891 106.373 104.184C105.08 105.476 104.15 105.666 104.15 105.666" fill="white"/>
<path d="M96.3726 107.915C93.0356 107.915 85.8153 107.375 84.3334 105.135C82.8515 102.896 84.8742 99.9488 84.8742 99.9488C84.8742 99.9488 82.8352 96.2494 83.5762 94.2104C84.3172 92.1714 90.8019 93.6696 90.8019 93.6696L98.3737 91.2628C98.3737 91.2628 101.954 88.0772 103.961 88.0772C105.967 88.0772 105.075 93.0801 105.075 93.0801C105.075 93.0801 108.59 93.821 109.521 97.1526C110.451 100.484 107.665 102.891 106.373 104.184C105.08 105.476 104.15 105.666 104.15 105.666" stroke="#263238" stroke-linecap="round" stroke-linejoin="round"/>
<path d="M99.2497 101.798C99.2497 101.798 96.8268 102.204 97.0269 102.81C97.227 103.416 98.2384 103.821 99.2497 103.416C100.261 103.01 100.386 101.598 99.2497 101.798Z" fill="white" stroke="#263238" stroke-linecap="round" stroke-linejoin="round"/>
<path d="M95.7179 100.549C95.8639 101.204 95.6909 101.793 95.3393 101.874C94.9878 101.955 94.5821 101.485 94.4361 100.83C94.2901 100.176 94.4361 99.581 94.8147 99.5053C95.1933 99.4296 95.5773 99.8947 95.7179 100.549Z" fill="#263238"/>
<path d="M101.029 99.2349C101.17 99.8893 101.002 100.479 100.645 100.56C100.288 100.641 99.8882 100.171 99.7422 99.5161C99.5961 98.8617 99.7422 98.2668 100.126 98.1911C100.51 98.1153 100.873 98.5805 101.029 99.2349Z" fill="#263238"/>
<path d="M98.9794 103.902C99.0835 104.142 99.1169 104.406 99.0757 104.664C99.0345 104.922 98.9204 105.162 98.7469 105.357C98.1357 105.968 96.8323 105.741 96.5835 104.898" stroke="#263238" stroke-linecap="round" stroke-linejoin="round"/>
<path d="M99.2065 104.898C99.2065 104.898 99.8177 105.59 100.894 104.898C101.036 104.823 101.159 104.717 101.251 104.586C101.344 104.455 101.403 104.304 101.426 104.145C101.448 103.986 101.432 103.824 101.379 103.673C101.326 103.522 101.237 103.385 101.121 103.275" stroke="#263238" stroke-linecap="round" stroke-linejoin="round"/>
<path d="M98.5194 92.4906C98.5194 92.4906 92.5701 93.8697 91.9319 95.2489C91.2937 96.628 98.5194 94.4809 99.4389 93.6263C100.358 92.7718 99.5146 92.1877 98.5194 92.4906Z" fill="#263238" stroke="#263238" stroke-linecap="round" stroke-linejoin="round"/>
<path d="M97.5243 95.7086C97.5243 95.7086 93.614 97.0877 94.0737 97.4717C94.5334 97.8557 98.1355 96.9309 98.8981 96.3197C99.6606 95.7086 98.898 95.2488 97.5243 95.7086Z" fill="#263238" stroke="#263238" stroke-linecap="round" stroke-linejoin="round"/>
<path d="M83.8142 102.983C83.8142 102.983 89.8663 99.1538 89.4823 100.993C89.0983 102.832 85.042 105.741 85.042 105.741C84.5491 105.495 84.1572 105.086 83.9332 104.582C83.7092 104.079 83.6672 103.514 83.8142 102.983Z" fill="#263238" stroke="#263238" stroke-linecap="round" stroke-linejoin="round"/>
<path d="M88.103 107.045C88.103 107.045 91.7808 102.599 91.5482 104.67C91.3156 106.742 90.4665 107.348 90.4665 107.348C90.4665 107.348 88.3302 107.045 88.103 107.045Z" fill="#263238" stroke="#263238" stroke-linecap="round" stroke-linejoin="round"/>
<path d="M108.396 95.3246C108.396 95.3246 104.339 96.1683 104.642 96.9471C104.945 97.7259 109.548 98.5696 109.548 98.5696C109.548 98.5696 109.775 96.3954 108.396 95.3246Z" fill="#263238" stroke="#263238" stroke-linecap="round" stroke-linejoin="round"/>
<path d="M108.32 102.139C108.32 102.139 104.182 100.684 104.491 101.761C104.799 102.837 106.789 103.827 106.789 103.827C106.789 103.827 107.784 102.756 108.32 102.139Z" fill="#263238" stroke="#263238" stroke-linecap="round" stroke-linejoin="round"/>
<path d="M83.5925 94.2104C83.5925 94.2104 85.9992 94.7513 87.1134 95.8762C88.2275 97.0012 88.5953 97.3581 87.1134 98.8401C85.6315 100.322 84.8905 99.9217 84.8905 99.9217C84.8905 99.9217 83.4086 96.9904 83.5925 94.2104Z" fill="white" stroke="#263238" stroke-linecap="round" stroke-linejoin="round"/>
<path d="M103.96 88.0772C103.96 88.0772 101.927 92.3391 102.879 93.4478C103.831 94.5566 105.102 93.08 105.102 93.08C105.102 93.08 106.373 87.915 103.96 88.0772Z" fill="white" stroke="#263238" stroke-linecap="round" stroke-linejoin="round"/>
<path d="M96.4967 106.428C96.4967 106.428 93.4571 106.022 92.4403 107.239C91.4235 108.456 92.4403 109.268 95.2798 109.468C98.1192 109.668 99.8986 107.732 96.4967 106.428Z" fill="white" stroke="#263238" stroke-linecap="round" stroke-linejoin="round"/>
<path d="M109.072 105.617C109.072 105.617 104.204 104.194 101.57 105.817C98.9362 107.44 96.2969 111.901 99.1363 113.724C101.976 115.547 102.787 110.079 102.787 110.079C102.787 110.079 107.655 116.158 112.111 112.713" fill="white"/>
<path d="M109.072 105.617C109.072 105.617 104.204 104.194 101.57 105.817C98.9362 107.44 96.2969 111.901 99.1363 113.724C101.976 115.547 102.787 110.079 102.787 110.079C102.787 110.079 107.655 116.158 112.111 112.713" stroke="#263238" stroke-linecap="round" stroke-linejoin="round"/>
<path d="M151.615 120.528C146.152 119.122 140.062 125.368 138.499 130.68C136.936 135.991 136 143.481 132.096 145.823C131.154 146.394 130.109 146.774 129.02 146.94C127.931 147.106 126.821 147.055 125.751 146.791C125.066 147.496 124.285 148.1 123.431 148.587C126.741 149.506 132.982 150.469 136.952 146.272C142.577 140.323 141.328 132.21 145.855 128.316C150.381 124.422 153.194 131.75 156.001 129.252C158.808 126.753 157.083 121.912 151.615 120.528Z" fill="white" stroke="#263238" stroke-linecap="round" stroke-linejoin="round"/>
<path d="M138.818 143.844L135.362 141.518C134.977 142.447 134.481 143.326 133.886 144.136C134.583 145.131 135.46 146.299 136.049 147.067C136.353 146.821 136.64 146.555 136.909 146.272C137.623 145.527 138.262 144.713 138.818 143.844Z" fill="#263238" stroke="#263238" stroke-linecap="round" stroke-linejoin="round"/>
<path d="M151.614 120.528C151.279 120.441 150.937 120.384 150.592 120.355C148.548 122.518 148.039 125.412 147.937 127.234C151.29 126.58 153.637 131.361 155.984 129.273C158.797 126.753 157.082 121.912 151.614 120.528Z" fill="#263238" stroke="#263238" stroke-linecap="round" stroke-linejoin="round"/>
<path d="M130.429 146.58C129.849 146.78 129.249 146.914 128.639 146.981C128.816 147.774 129.04 148.556 129.31 149.323V149.371C130.333 149.349 131.349 149.206 132.339 148.944C131.781 148.095 131.142 147.304 130.429 146.58Z" fill="#263238" stroke="#263238" stroke-linecap="round" stroke-linejoin="round"/>
<path d="M137.72 133.589C137.455 134.671 137.179 135.753 136.909 136.834L141.057 138.944C141.544 137.483 141.933 136.034 142.355 134.666L137.72 133.589Z" fill="#263238" stroke="#263238" stroke-linecap="round" stroke-linejoin="round"/>
<path d="M140.268 126.894L143.853 130.842C144.264 130.069 144.783 129.358 145.395 128.733L142.361 124.233C141.582 125.053 140.881 125.944 140.268 126.894Z" fill="#263238" stroke="#263238" stroke-linecap="round" stroke-linejoin="round"/>
<path d="M135.487 106.32V106.044C135.487 106.044 135.103 106.114 135.487 106.32Z" fill="white" stroke="#263238" stroke-linecap="round" stroke-linejoin="round"/>
</g>
<defs>
<clipPath id="clip0_7_2705">
<rect width="240" height="240" fill="white" transform="translate(0.5)"/>
</clipPath>
</defs>
</svg>
