<svg width="241" height="240" viewBox="0 0 241 240" fill="none" xmlns="http://www.w3.org/2000/svg">
<g clip-path="url(#clip0_7_1822)">
<path d="M233.3 144.278C225.697 164.541 210.172 186.475 188.325 192.971C155.292 202.787 151.37 229.28 92.242 226.823C83.6049 226.507 75.028 225.256 66.6627 223.092C62.579 222.018 58.5676 220.687 54.6524 219.109C20.1078 205.177 2.08978 174.516 0.598165 142.438C-1.37345 100.24 28.1904 80.1302 47.4059 68.3563C66.6214 56.5825 89.7801 10.9722 147.922 12.9096C156.801 13.1749 165.619 14.4579 174.203 16.7332C193.77 22.006 213.656 33.6668 225.218 50.7135C226.085 51.9983 226.914 53.3071 227.705 54.6398C243.179 80.7726 243.659 116.649 233.3 144.278Z" fill="#FFAC4B"/>
<path opacity="0.8" d="M233.3 144.278C225.697 164.541 210.172 186.475 188.325 192.971C155.292 202.787 151.37 229.28 92.242 226.823C83.6049 226.507 75.028 225.256 66.6627 223.092C62.579 222.018 58.5676 220.687 54.6524 219.109C20.1078 205.177 2.08978 174.516 0.598165 142.438C-1.37345 100.24 28.1904 80.1302 47.4059 68.3563C66.6214 56.5825 89.7801 10.9722 147.922 12.9096C156.801 13.1749 165.619 14.4579 174.203 16.7332C193.77 22.006 213.656 33.6668 225.218 50.7135C226.085 51.9983 226.914 53.3071 227.705 54.6398C243.179 80.7726 243.659 116.649 233.3 144.278Z" fill="white"/>
<path d="M74.3374 78.6295H72.7581V153.055H74.3374V78.6295Z" fill="#263238"/>
<path d="M77.0676 78.6295H75.4883V153.055H77.0676V78.6295Z" fill="#263238"/>
<path d="M83.54 78.6295H81.9607V146.343H83.54V78.6295Z" fill="#263238"/>
<path d="M98.4973 78.6295H96.918V146.343H98.4973V78.6295Z" fill="#263238"/>
<path d="M108.707 78.6295H107.127V146.343H108.707V78.6295Z" fill="#263238"/>
<path d="M119.494 78.6295H117.914V146.343H119.494V78.6295Z" fill="#263238"/>
<path d="M122.368 78.6295H120.789V153.055H122.368V78.6295Z" fill="#263238"/>
<path d="M125.243 78.6295H123.664V153.055H125.243V78.6295Z" fill="#263238"/>
<path d="M135.741 78.6295H134.162V146.343H135.741V78.6295Z" fill="#263238"/>
<path d="M146.673 78.6295H145.094V146.343H146.673V78.6295Z" fill="#263238"/>
<path d="M157.171 78.6295H155.592V146.343H157.171V78.6295Z" fill="#263238"/>
<path d="M160.195 78.6295H158.611V146.343H160.195V78.6295Z" fill="#263238"/>
<path d="M167.669 78.6295H166.09V146.343H167.669V78.6295Z" fill="#263238"/>
<path d="M170.833 78.6295H169.253V153.055H170.833V78.6295Z" fill="#263238"/>
<path d="M173.852 78.6295H172.273V153.055H173.852V78.6295Z" fill="#263238"/>
<path d="M87.5658 78.6295H84.6909V146.343H87.5658V78.6295Z" fill="#263238"/>
<path d="M92.1698 78.6295H89.2949V146.343H92.1698V78.6295Z" fill="#263238"/>
<path d="M105.687 78.6295H102.812V146.343H105.687V78.6295Z" fill="#263238"/>
<path d="M113.166 78.6295H110.291V146.343H113.166V78.6295Z" fill="#263238"/>
<path d="M131.287 78.6295H127.117V146.343H131.287V78.6295Z" fill="#263238"/>
<path d="M141.641 78.6295H137.47V146.343H141.641V78.6295Z" fill="#263238"/>
<path d="M152.428 78.6295H148.257V146.343H152.428V78.6295Z" fill="#263238"/>
<path d="M86.1361 160.975C85.5746 161.003 85.0173 160.864 84.5361 160.574C84.1294 160.299 83.8233 159.901 83.6639 159.438C83.4701 158.887 83.3775 158.305 83.3903 157.722C83.3815 157.295 83.4318 156.87 83.54 156.457C83.622 156.157 83.7565 155.873 83.9374 155.62C84.0881 155.418 84.2733 155.244 84.4845 155.106C84.6739 154.98 84.8704 154.865 85.0729 154.761C84.604 154.57 84.2069 154.238 83.9374 153.811C83.6242 153.276 83.4736 152.661 83.5039 152.043C83.4955 151.529 83.583 151.019 83.762 150.537C83.9244 150.112 84.2215 149.751 84.6084 149.509C85.0778 149.239 85.6156 149.111 86.1568 149.139C86.6903 149.112 87.22 149.243 87.6794 149.514C88.0529 149.766 88.3409 150.124 88.5052 150.542C88.6845 151.027 88.772 151.541 88.7632 152.058C88.7962 152.669 88.6491 153.277 88.34 153.806C88.0675 154.227 87.6735 154.557 87.2097 154.751C87.4112 154.854 87.606 154.969 87.7929 155.095C87.9924 155.237 88.1668 155.411 88.309 155.609C88.4915 155.864 88.6294 156.147 88.7168 156.447C88.8294 156.859 88.8815 157.285 88.8716 157.711C88.8845 158.295 88.7918 158.877 88.5981 159.428C88.4387 159.889 88.1348 160.287 87.731 160.564C87.2524 160.856 86.697 160.999 86.1361 160.975ZM86.1361 160.147C86.4735 160.164 86.807 160.07 87.0858 159.88C87.3558 159.681 87.5532 159.399 87.6484 159.078C87.8821 158.224 87.8821 157.322 87.6484 156.468C87.5596 156.138 87.381 155.839 87.1323 155.604C86.8512 155.369 86.4979 155.237 86.131 155.229C85.7544 155.236 85.3909 155.368 85.0987 155.604C84.838 155.835 84.6483 156.134 84.5516 156.468C84.4335 156.875 84.3779 157.298 84.3865 157.722C84.3719 158.182 84.4382 158.641 84.5826 159.078C84.6769 159.407 84.8827 159.693 85.165 159.888C85.4473 160.083 85.7886 160.175 86.131 160.147H86.1361ZM86.1361 154.268C86.4801 154.273 86.8148 154.156 87.0807 153.939C87.316 153.724 87.4844 153.445 87.5658 153.137C87.6633 152.769 87.7101 152.388 87.7052 152.007C87.7431 151.467 87.6134 150.929 87.3336 150.465C87.1924 150.287 87.0091 150.147 86.8 150.058C86.591 149.968 86.3629 149.931 86.1361 149.951C85.9071 149.931 85.6766 149.967 85.4651 150.057C85.2535 150.147 85.0674 150.287 84.9232 150.465C84.6356 150.926 84.502 151.466 84.5413 152.007C84.5354 152.389 84.584 152.769 84.6858 153.137C84.7702 153.452 84.9506 153.732 85.202 153.939C85.4676 154.15 85.7966 154.266 86.1361 154.268Z" fill="#263238"/>
<path d="M94.7863 160.975C94.2809 160.992 93.7786 160.89 93.3205 160.677C92.931 160.481 92.6185 160.16 92.4328 159.767C92.2225 159.295 92.1169 158.783 92.1231 158.266V158.056H93.1554C93.1083 158.604 93.2327 159.153 93.5115 159.628C93.7964 159.884 94.1542 160.045 94.5352 160.089C94.9162 160.134 95.3017 160.059 95.638 159.875C95.9019 159.683 96.0928 159.408 96.1799 159.094C96.319 158.611 96.3817 158.11 96.3657 157.609V155.419C96.1746 155.623 95.9424 155.784 95.6844 155.892C95.3076 156.043 94.9034 156.115 94.4973 156.103C93.9679 156.134 93.4412 156.007 92.985 155.738C92.5985 155.465 92.3222 155.064 92.2057 154.607C92.0363 153.965 91.9598 153.302 91.9786 152.639C91.9652 152.006 92.0595 151.375 92.2573 150.773C92.4184 150.282 92.7308 149.854 93.1502 149.55C93.625 149.238 94.1873 149.085 94.7554 149.113C95.3057 149.085 95.85 149.239 96.3038 149.55C96.7149 149.865 97.0164 150.3 97.1657 150.794C97.3628 151.422 97.4552 152.079 97.4392 152.737V157.362C97.4507 157.997 97.3637 158.629 97.1812 159.238C97.041 159.736 96.7532 160.18 96.3554 160.512C95.9027 160.844 95.3476 161.008 94.7863 160.975ZM94.745 155.286C95.1026 155.302 95.4583 155.226 95.7773 155.065C96.0029 154.949 96.2071 154.796 96.3812 154.612V152.624C96.3954 152.105 96.3399 151.586 96.216 151.082C96.1568 150.751 95.976 150.454 95.7088 150.249C95.4416 150.044 95.1072 149.945 94.7708 149.972C94.4363 149.96 94.1063 150.051 93.8263 150.234C93.5546 150.437 93.3555 150.722 93.2586 151.046C93.123 151.492 93.0603 151.957 93.0728 152.423C93.0651 152.955 93.1014 153.486 93.1812 154.011C93.2223 154.37 93.3864 154.704 93.6457 154.957C93.9607 155.194 94.3508 155.311 94.745 155.286Z" fill="#263238"/>
<path d="M104.041 160.846V157.449H100.531V156.375L103.839 149.227H105.078V156.493H106.415V157.439H105.078V160.846H104.041ZM101.594 156.504H104.041V150.614L101.594 156.504Z" fill="#263238"/>
<path d="M109.785 160.846L112.061 150.054H108.531V149.211H113.14V149.725L110.807 160.846H109.785Z" fill="#263238"/>
<path d="M132.918 160.975C132.337 161.007 131.762 160.852 131.277 160.533C130.869 160.226 130.568 159.8 130.415 159.315C130.236 158.744 130.149 158.15 130.157 157.552V152.505C130.146 151.905 130.236 151.308 130.425 150.737C130.581 150.255 130.889 149.835 131.302 149.54C131.783 149.233 132.348 149.084 132.918 149.113C133.496 149.081 134.071 149.23 134.559 149.54C134.97 149.837 135.275 150.257 135.432 150.737C135.618 151.308 135.709 151.905 135.7 152.505V157.552C135.71 158.155 135.621 158.756 135.437 159.33C135.288 159.815 134.985 160.238 134.575 160.538C134.083 160.855 133.503 161.008 132.918 160.975ZM132.918 160.147C133.293 160.168 133.661 160.047 133.95 159.808C134.205 159.563 134.384 159.251 134.466 158.909C134.57 158.494 134.62 158.067 134.616 157.639V152.439C134.621 152.011 134.57 151.584 134.466 151.169C134.383 150.827 134.204 150.515 133.95 150.27C133.657 150.04 133.291 149.923 132.918 149.941C132.545 149.918 132.176 150.036 131.886 150.27C131.628 150.512 131.449 150.825 131.37 151.169C131.261 151.584 131.209 152.01 131.215 152.439V157.639C131.21 158.067 131.262 158.494 131.37 158.909C131.448 159.253 131.628 159.566 131.886 159.808C132.174 160.048 132.543 160.17 132.918 160.147Z" fill="#263238"/>
<path d="M141.801 160.975C141.22 161.008 140.644 160.853 140.159 160.533C139.75 160.227 139.449 159.801 139.297 159.315C139.115 158.745 139.028 158.15 139.039 157.552V152.505C139.029 151.906 139.118 151.308 139.302 150.737C139.459 150.255 139.766 149.835 140.18 149.54C140.678 149.26 141.239 149.113 141.811 149.113C142.382 149.113 142.944 149.26 143.442 149.54C143.851 149.838 144.155 150.257 144.309 150.737C144.498 151.308 144.588 151.905 144.577 152.505V157.552C144.586 158.155 144.499 158.755 144.319 159.33C144.168 159.814 143.866 160.237 143.457 160.538C142.965 160.854 142.385 161.007 141.801 160.975ZM141.801 160.147C142.175 160.169 142.545 160.048 142.833 159.808C143.089 159.565 143.269 159.252 143.349 158.909C143.457 158.494 143.509 158.067 143.504 157.639V152.439C143.509 152.01 143.457 151.584 143.349 151.169C143.27 150.825 143.09 150.512 142.833 150.27C142.53 150.059 142.17 149.946 141.801 149.946C141.431 149.946 141.071 150.059 140.768 150.27C140.513 150.514 140.333 150.826 140.252 151.169C140.148 151.584 140.098 152.011 140.102 152.439V157.639C140.099 158.067 140.149 158.494 140.252 158.909C140.331 159.253 140.511 159.566 140.768 159.808C141.055 160.05 141.425 160.171 141.801 160.147Z" fill="#263238"/>
<path d="M150.678 160.975C150.097 161.007 149.522 160.852 149.037 160.533C148.629 160.226 148.328 159.8 148.175 159.315C147.996 158.744 147.909 158.15 147.917 157.552V152.505C147.906 151.905 147.996 151.308 148.185 150.737C148.341 150.255 148.649 149.835 149.062 149.54C149.543 149.233 150.108 149.084 150.678 149.113C151.256 149.081 151.831 149.23 152.319 149.54C152.73 149.837 153.035 150.257 153.192 150.737C153.378 151.308 153.469 151.905 153.46 152.505V157.552C153.47 158.155 153.381 158.756 153.197 159.33C153.048 159.815 152.745 160.238 152.335 160.538C151.843 160.855 151.263 161.008 150.678 160.975ZM150.678 160.147C151.053 160.168 151.422 160.047 151.71 159.808C151.965 159.563 152.144 159.251 152.226 158.909C152.33 158.494 152.38 158.067 152.376 157.639V152.439C152.381 152.011 152.33 151.584 152.226 151.169C152.143 150.827 151.964 150.515 151.71 150.27C151.417 150.04 151.051 149.923 150.678 149.941C150.305 149.918 149.936 150.036 149.646 150.27C149.388 150.512 149.209 150.825 149.13 151.169C149.021 151.584 148.969 152.01 148.975 152.439V157.639C148.97 158.067 149.022 158.494 149.13 158.909C149.208 159.253 149.388 159.566 149.646 159.808C149.934 160.048 150.303 160.17 150.678 160.147Z" fill="#263238"/>
<path d="M157.331 160.846L159.602 150.08H156.077V149.237H160.681V149.751L158.353 160.846H157.331Z" fill="#263238"/>
<path d="M175.975 58.0728C174.84 58.0728 173.919 57.1524 173.919 56.0171C173.919 54.8818 174.84 53.9615 175.975 53.9615H185.823C190.793 53.9615 194.823 57.9909 194.823 62.9615V71.9398C194.823 73.08 193.898 74.0043 192.758 74.0043C191.618 74.0043 190.694 73.08 190.694 71.9398V66.0385C190.694 61.6392 187.127 58.0728 182.728 58.0728H175.975Z" fill="#F89913"/>
<path d="M175.975 176.788C174.84 176.788 173.919 177.708 173.919 178.844C173.919 179.979 174.84 180.899 175.975 180.899H185.823C190.793 180.899 194.823 176.87 194.823 171.899V162.921C194.823 161.781 193.898 160.857 192.758 160.857C191.618 160.857 190.694 161.781 190.694 162.921V168.822C190.694 173.222 187.127 176.788 182.728 176.788H175.975Z" fill="#F89913"/>
<path d="M70.4443 58.0728C71.5796 58.0728 72.5 57.1524 72.5 56.0171C72.5 54.8818 71.5796 53.9615 70.4443 53.9615H60.5968C55.6262 53.9615 51.5968 57.9909 51.5968 62.9615V71.9398C51.5968 73.08 52.5211 74.0043 53.6613 74.0043C54.8015 74.0043 55.7258 73.08 55.7258 71.9398V66.0385C55.7258 61.6392 59.2922 58.0728 63.6915 58.0728H70.4443Z" fill="#F89913"/>
<path d="M70.4443 176.788C71.5796 176.788 72.5 177.708 72.5 178.844C72.5 179.979 71.5796 180.899 70.4443 180.899H60.5968C55.6262 180.899 51.5968 176.87 51.5968 171.899V162.921C51.5968 161.781 52.5211 160.857 53.6613 160.857C54.8015 160.857 55.7258 161.781 55.7258 162.921V168.822C55.7258 173.222 59.2922 176.788 63.6915 176.788H70.4443Z" fill="#F89913"/>
</g>
<defs>
<clipPath id="clip0_7_1822">
<rect width="240" height="240" fill="white" transform="translate(0.5)"/>
</clipPath>
</defs>
</svg>
