<svg width="241" height="240" viewBox="0 0 241 240" fill="none" xmlns="http://www.w3.org/2000/svg">
<g clip-path="url(#clip0_7_2053)">
<path d="M230.415 141.742C231.188 137.894 232.455 134.163 234.187 130.64C238.916 120.958 242.315 112.487 239.306 101.675C231.934 75.269 201.952 72.1832 187.162 52.268C164.297 21.4936 108.116 18.8217 81.2782 45.4167C73.0497 53.5685 69.1955 65.0837 60.8782 73.1468C48.624 85.0345 30.429 86.5655 17.8437 98.4177C-2.67448 117.754 -4.6666 150.52 13.5462 172.262C32.7817 195.222 59.9324 191.456 86.3028 186.573C99.2782 184.173 112.768 181.572 125.992 183.417C154.194 187.389 187.659 202.883 214.993 187.46C229.552 179.243 229.925 166.428 229.588 151.478C229.505 148.212 229.783 144.947 230.415 141.742Z" fill="#FFAC4B"/>
<path opacity="0.8" d="M230.415 141.742C231.188 137.894 232.455 134.163 234.187 130.64C238.916 120.958 242.315 112.487 239.306 101.675C231.934 75.269 201.952 72.1832 187.162 52.268C164.297 21.4936 108.116 18.8217 81.2782 45.4167C73.0497 53.5685 69.1955 65.0837 60.8782 73.1468C48.624 85.0345 30.429 86.5655 17.8437 98.4177C-2.67448 117.754 -4.6666 150.52 13.5462 172.262C32.7817 195.222 59.9324 191.456 86.3028 186.573C99.2782 184.173 112.768 181.572 125.992 183.417C154.194 187.389 187.659 202.883 214.993 187.46C229.552 179.243 229.925 166.428 229.588 151.478C229.505 148.212 229.783 144.947 230.415 141.742Z" fill="white"/>
<path d="M115.475 222.266C177.995 222.266 228.677 211.547 228.677 198.325C228.677 185.103 177.995 174.384 115.475 174.384C52.9557 174.384 2.27344 185.103 2.27344 198.325C2.27344 211.547 52.9557 222.266 115.475 222.266Z" fill="#FFAC4B"/>
<path opacity="0.3" d="M115.475 222.266C177.995 222.266 228.677 211.547 228.677 198.325C228.677 185.103 177.995 174.384 115.475 174.384C52.9557 174.384 2.27344 185.103 2.27344 198.325C2.27344 211.547 52.9557 222.266 115.475 222.266Z" fill="white"/>
<path d="M35.4833 59.8759L18.4114 204.881C18.3882 205.09 18.4241 205.301 18.515 205.49C18.6058 205.68 18.748 205.84 18.9253 205.952C19.1027 206.065 19.308 206.126 19.5181 206.128C19.7282 206.129 19.9346 206.072 20.1138 205.963L31.0853 199.212C31.7365 198.808 32.5189 198.673 33.2677 198.835C34.0165 198.997 34.6731 199.444 35.0991 200.081L48.8843 220.575L54.636 134.365L35.4833 59.8759Z" fill="#FFAC4B" stroke="#2E353A" stroke-linecap="round" stroke-linejoin="round"/>
<path d="M35.3769 63.5232L19.9483 201.257C19.915 201.554 19.9691 201.855 20.1041 202.122C20.2391 202.389 20.4491 202.611 20.7083 202.76C20.9675 202.909 21.2646 202.98 21.5633 202.963C21.862 202.946 22.1492 202.842 22.3897 202.664L30.4113 196.753C30.8285 196.444 31.3043 196.224 31.8095 196.106C32.3147 195.987 32.8388 195.974 33.3496 196.065C33.8604 196.156 34.3471 196.351 34.7801 196.637C35.213 196.923 35.5831 197.294 35.8675 197.728L45.2547 212.057C45.3564 212.216 45.5085 212.337 45.6867 212.4C45.865 212.462 46.0591 212.463 46.238 212.403C46.417 212.342 46.5705 212.223 46.674 212.065C46.7776 211.907 46.8252 211.719 46.8094 211.531L35.8498 63.5291C35.8384 63.4752 35.809 63.4268 35.7664 63.3919C35.7239 63.357 35.6707 63.3376 35.6157 63.3369C35.5606 63.3362 35.507 63.3543 35.4636 63.3881C35.4202 63.422 35.3896 63.4696 35.3769 63.5232Z" fill="#FFAC4B" stroke="#2E353A" stroke-linecap="round" stroke-linejoin="round"/>
<path opacity="0.6" d="M35.5898 61.5251L19.9366 201.245C19.9032 201.543 19.9574 201.843 20.0924 202.11C20.2274 202.377 20.4374 202.599 20.6966 202.748C20.9558 202.898 21.2529 202.968 21.5516 202.951C21.8502 202.934 22.1374 202.83 22.378 202.652L30.3996 196.741C30.8168 196.432 31.2926 196.212 31.7978 196.094C32.303 195.976 32.8271 195.962 33.3379 196.053C33.8486 196.144 34.3354 196.339 34.7684 196.625C35.2013 196.911 35.5713 197.282 35.8558 197.716L45.243 212.045C45.3447 212.205 45.4968 212.325 45.675 212.388C45.8533 212.45 46.0473 212.451 46.2263 212.391C46.4052 212.33 46.5587 212.212 46.6623 212.054C46.7659 211.896 46.8135 211.707 46.7977 211.519L35.7021 61.5251C35.6982 61.5133 35.6907 61.503 35.6806 61.4957C35.6705 61.4884 35.6584 61.4845 35.6459 61.4845C35.6335 61.4845 35.6214 61.4884 35.6113 61.4957C35.6012 61.503 35.5937 61.5133 35.5898 61.5251Z" fill="black"/>
<path d="M32.7344 195.984C33.3554 195.995 33.9644 196.157 34.5084 196.457C35.0523 196.757 35.5148 197.185 35.8556 197.704L45.2428 212.034C45.3445 212.193 45.4966 212.313 45.6749 212.376C45.8531 212.439 46.0472 212.44 46.2261 212.379C46.4051 212.319 46.5586 212.2 46.6621 212.042C46.7657 211.884 46.8134 211.696 46.7975 211.507L45.4556 193.395L32.5334 195.925C32.6021 195.939 32.6694 195.958 32.7344 195.984Z" fill="#FFAC4B" stroke="#2E353A" stroke-linecap="round" stroke-linejoin="round"/>
<path opacity="0.3" d="M32.7344 195.984C33.3554 195.995 33.9644 196.157 34.5084 196.457C35.0523 196.757 35.5148 197.185 35.8556 197.704L45.2428 212.034C45.3445 212.193 45.4966 212.313 45.6749 212.376C45.8531 212.439 46.0472 212.44 46.2261 212.379C46.4051 212.319 46.5586 212.2 46.6621 212.042C46.7657 211.884 46.8134 211.696 46.7975 211.507L45.4556 193.395L32.5334 195.925C32.6021 195.939 32.6694 195.958 32.7344 195.984Z" fill="black"/>
<path d="M35.832 59.7872L48.8783 220.575L201.006 191.586L165.255 66.1892L35.832 59.7872Z" fill="#2E353A" stroke="#2E353A" stroke-linecap="round" stroke-linejoin="round"/>
<path d="M42.8843 63.2571L51.8459 212.075L194.9 186.065L164.746 70.4453L42.8843 63.2571Z" fill="#FFAC4B" stroke="#2E353A" stroke-linecap="round" stroke-linejoin="round"/>
<path d="M51.6272 136.493L58.4311 207.033L188.409 183.399L176.333 130.38L51.6272 136.493Z" fill="white" stroke="#2E353A" stroke-linecap="round" stroke-linejoin="round"/>
<path d="M76.7148 203.521L74.5571 180.863" stroke="#2E353A" stroke-linecap="round" stroke-linejoin="round"/>
<path d="M96.6064 200.016L94.5256 181.129" stroke="#2E353A" stroke-linecap="round" stroke-linejoin="round"/>
<path d="M116.108 196.238L113.678 181.129" stroke="#2E353A" stroke-linecap="round" stroke-linejoin="round"/>
<path d="M136.2 192.792L133.31 174.78" stroke="#2E353A" stroke-linecap="round" stroke-linejoin="round"/>
<path d="M153.899 189.6L151.434 172.02" stroke="#2E353A" stroke-linecap="round" stroke-linejoin="round"/>
<path d="M170.87 186.461L167.199 165.322" stroke="#2E353A" stroke-linecap="round" stroke-linejoin="round"/>
<g style="mix-blend-mode:multiply" opacity="0.49">
<path d="M43.6055 104.37C43.6055 104.37 46.6084 147.588 49.369 163.348C52.1296 179.107 57.2488 202.694 57.2488 202.694C57.2488 202.694 145.919 188.967 189.663 170.441L186.116 153.499L43.6055 104.37Z" fill="#FFAC4B"/>
</g>
<path d="M39.5977 61.6375L164.132 68.3468C164.132 68.3468 176.256 104.672 188.321 125.184C200.386 145.697 220.283 144.361 220.283 144.361C220.283 144.361 174.648 169.312 139.103 182.595C102.11 196.41 70.0292 198.893 70.0292 198.893C70.0292 198.893 40.8095 158.979 39.5977 61.6375Z" fill="#FFAC4B" stroke="#2E353A" stroke-linecap="round" stroke-linejoin="round"/>
<path d="M53.8558 55.1704C51.5445 55.1704 49.8716 57.2217 49.3455 60.4374L51.71 60.5675C52.0765 58.7113 52.8036 57.535 53.8499 57.535C55.0676 57.535 56.4213 59.4916 56.4213 62.3054C56.4213 65.1192 55.0676 67.0818 53.8499 67.0818C53.5363 67.0818 53.2356 67.2063 53.0139 67.428C52.7922 67.6498 52.6676 67.9505 52.6676 68.264C52.6676 68.5776 52.7922 68.8783 53.0139 69.1C53.2356 69.3217 53.5363 69.4463 53.8499 69.4463C56.6164 69.4463 58.7859 66.3074 58.7859 62.3054C58.7859 58.3034 56.6223 55.1704 53.8558 55.1704Z" fill="white" stroke="#2E353A" stroke-miterlimit="10"/>
<path d="M57.2487 64.2207C57.1355 64.6376 56.9892 65.0448 56.8113 65.4384" stroke="#2E353A" stroke-width="0.75" stroke-linecap="round" stroke-linejoin="round"/>
<path d="M50.5159 59.3734C50.5159 59.3734 51.4026 56.1695 54.0213 56.3468C56.0784 56.4887 57.775 59.5448 57.4912 62.8138" stroke="#2E353A" stroke-width="0.75" stroke-linecap="round" stroke-linejoin="round"/>
<path d="M74.3917 56.2049C72.0804 56.2049 70.4075 58.2562 69.8813 61.4719L72.2459 61.602C72.6124 59.7458 73.3395 58.5695 74.3858 58.5695C75.6035 58.5695 76.9572 60.5261 76.9572 63.3399C76.9572 66.1537 75.6035 68.1163 74.3858 68.1163C74.0722 68.1163 73.7715 68.2408 73.5498 68.4625C73.3281 68.6842 73.2035 68.985 73.2035 69.2985C73.2035 69.6121 73.3281 69.9128 73.5498 70.1345C73.7715 70.3562 74.0722 70.4808 74.3858 70.4808C77.1523 70.4808 79.3217 67.3419 79.3217 63.3399C79.3217 59.3379 77.1641 56.2049 74.3917 56.2049Z" fill="white" stroke="#2E353A" stroke-miterlimit="10"/>
<path d="M77.7907 65.2552C77.6775 65.672 77.5312 66.0792 77.3533 66.4729" stroke="#2E353A" stroke-width="0.75" stroke-linecap="round" stroke-linejoin="round"/>
<path d="M71.0576 60.4079C71.0576 60.4079 71.9443 57.2039 74.563 57.3813C76.6202 57.5231 78.3167 60.5793 78.033 63.8483" stroke="#2E353A" stroke-width="0.75" stroke-linecap="round" stroke-linejoin="round"/>
<path d="M94.9395 57.2394C92.6282 57.2394 90.9553 59.2906 90.4292 62.5064L92.7937 62.6365C93.1602 60.7803 93.8873 59.6039 94.9336 59.6039C96.1514 59.6039 97.5051 61.5606 97.5051 64.3744C97.5051 67.1882 96.1514 69.1507 94.9336 69.1507C94.6201 69.1507 94.3194 69.2753 94.0976 69.497C93.8759 69.7187 93.7514 70.0194 93.7514 70.333C93.7514 70.6466 93.8759 70.9473 94.0976 71.169C94.3194 71.3907 94.6201 71.5153 94.9336 71.5153C97.7001 71.5153 99.8696 68.3764 99.8696 64.3744C99.8696 60.3724 97.706 57.2394 94.9395 57.2394Z" fill="white" stroke="#2E353A" stroke-miterlimit="10"/>
<path d="M98.3325 66.2896C98.2192 66.7065 98.073 67.1137 97.895 67.5074" stroke="#2E353A" stroke-width="0.75" stroke-linecap="round" stroke-linejoin="round"/>
<path d="M91.5996 61.4424C91.5996 61.4424 92.4863 58.2384 95.105 58.4158C97.1622 58.5576 98.8587 61.6138 98.575 64.8827" stroke="#2E353A" stroke-width="0.75" stroke-linecap="round" stroke-linejoin="round"/>
<path d="M115.481 58.2739C113.17 58.2739 111.497 60.3251 110.971 63.5409L113.335 63.6709C113.702 61.8148 114.429 60.6384 115.475 60.6384C116.693 60.6384 118.047 62.5951 118.047 65.4089C118.047 68.2227 116.693 70.1852 115.475 70.1852C115.162 70.1852 114.861 70.3098 114.639 70.5315C114.418 70.7532 114.293 71.0539 114.293 71.3675C114.293 71.681 114.418 71.9818 114.639 72.2035C114.861 72.4252 115.162 72.5498 115.475 72.5498C118.242 72.5498 120.411 69.4108 120.411 65.4089C120.411 61.4069 118.248 58.2739 115.481 58.2739Z" fill="white" stroke="#2E353A" stroke-miterlimit="10"/>
<path d="M118.874 67.3241C118.761 67.741 118.615 68.1482 118.437 68.5419" stroke="#2E353A" stroke-width="0.75" stroke-linecap="round" stroke-linejoin="round"/>
<path d="M112.141 62.4768C112.141 62.4768 113.028 59.2729 115.647 59.4502C117.704 59.5921 119.4 62.6483 119.117 65.9172" stroke="#2E353A" stroke-width="0.75" stroke-linecap="round" stroke-linejoin="round"/>
<path d="M136.396 59.1902C134.084 59.1902 132.411 61.2414 131.891 64.4631L134.256 64.5931C134.628 62.737 135.355 61.5547 136.396 61.5547C137.613 61.5547 138.973 63.5172 138.973 66.331C138.973 69.1448 137.613 71.1015 136.396 71.1015C136.082 71.1015 135.781 71.226 135.56 71.4478C135.338 71.6695 135.213 71.9702 135.213 72.2837C135.213 72.5973 135.338 72.898 135.56 73.1197C135.781 73.3415 136.082 73.466 136.396 73.466C139.168 73.466 141.337 70.333 141.337 66.331C141.337 62.3291 139.168 59.1902 136.396 59.1902Z" fill="white" stroke="#2E353A" stroke-miterlimit="10"/>
<path d="M139.789 68.2463C139.676 68.6616 139.53 69.0669 139.351 69.4581" stroke="#2E353A" stroke-width="0.75" stroke-linecap="round" stroke-linejoin="round"/>
<path d="M133.056 63.399C133.056 63.399 133.948 60.1892 136.561 60.3665C138.624 60.5084 140.315 63.5704 140.037 66.8394" stroke="#2E353A" stroke-width="0.75" stroke-linecap="round" stroke-linejoin="round"/>
<path d="M156.488 60.2956C154.177 60.2956 152.504 62.3468 151.984 65.5626L154.348 65.6985C154.721 63.8424 155.448 62.6601 156.488 62.6601C157.706 62.6601 159.066 64.6227 159.066 67.4305C159.066 70.2384 157.706 72.2069 156.488 72.2069C156.175 72.2069 155.874 72.3314 155.652 72.5532C155.431 72.7749 155.306 73.0756 155.306 73.3892C155.306 73.7027 155.431 74.0034 155.652 74.2251C155.874 74.4469 156.175 74.5714 156.488 74.5714C159.261 74.5714 161.43 71.4325 161.43 67.4305C161.43 63.4286 159.261 60.2956 156.488 60.2956Z" fill="white" stroke="#2E353A" stroke-miterlimit="10"/>
<path d="M159.881 69.3163C159.77 69.7337 159.624 70.1411 159.444 70.534" stroke="#2E353A" stroke-width="0.75" stroke-linecap="round" stroke-linejoin="round"/>
<path d="M153.148 64.4749C153.148 64.4749 154.041 61.265 156.654 61.4424C158.717 61.5842 160.408 64.6404 160.13 67.9094" stroke="#2E353A" stroke-width="0.75" stroke-linecap="round" stroke-linejoin="round"/>
<path d="M184.201 125.279C175.635 110.713 166.638 87.7123 163.44 79.2473L52.1474 74.7369C52.0764 156.993 76.975 190.977 76.975 190.977C76.975 190.977 105.32 188.784 138.009 176.571C169.422 164.837 206.888 145.141 206.888 145.141C206.888 145.141 194.859 143.409 184.201 125.279Z" fill="white" stroke="#2E353A" stroke-linecap="round" stroke-linejoin="round"/>
<path d="M163.44 79.2473L52.1472 74.7369C52.1472 82.8295 52.3778 90.4433 52.8034 97.6138L170.332 96.5143C167.288 89.2611 164.835 82.9064 163.44 79.2473Z" fill="#2E353A" stroke="#2E353A" stroke-linecap="round" stroke-linejoin="round"/>
<path d="M165.408 103.767L170.67 103.584" stroke="#2E353A" stroke-width="3" stroke-linecap="round" stroke-linejoin="round"/>
<path d="M149.944 104.294L161.466 103.898" stroke="#2E353A" stroke-width="3" stroke-linecap="round" stroke-linejoin="round"/>
<path d="M131.223 104.926L146.031 104.424" stroke="#2E353A" stroke-width="3" stroke-linecap="round" stroke-linejoin="round"/>
<path d="M112.177 105.57L127.954 105.038" stroke="#2E353A" stroke-width="3" stroke-linecap="round" stroke-linejoin="round"/>
<path d="M93.7632 106.197L108.228 105.706" stroke="#2E353A" stroke-width="3" stroke-linecap="round" stroke-linejoin="round"/>
<path d="M74.3621 106.859L88.8389 106.363" stroke="#2E353A" stroke-width="3" stroke-linecap="round" stroke-linejoin="round"/>
<path d="M57.2842 107.438L70.7561 106.977" stroke="#2E353A" stroke-width="3" stroke-linecap="round" stroke-linejoin="round"/>
<path d="M55.0911 120.118L177.532 112.658" stroke="#2E353A" stroke-linecap="round" stroke-linejoin="round"/>
<path d="M74.439 119.066C74.439 119.066 76.4488 151.626 97.9129 187.767" stroke="#2E353A" stroke-linecap="round" stroke-linejoin="round"/>
<path d="M94.1946 117.76C94.1946 117.76 96.4586 155.001 119.992 182.27" stroke="#2E353A" stroke-linecap="round" stroke-linejoin="round"/>
<path d="M112.082 116.66C112.082 116.66 113.265 150.946 139.718 175.584" stroke="#2E353A" stroke-linecap="round" stroke-linejoin="round"/>
<path d="M130.626 115.862C130.626 115.862 133.546 153.978 159.148 167.403" stroke="#2E353A" stroke-linecap="round" stroke-linejoin="round"/>
<path d="M150.057 114.331C150.057 114.331 152.114 143.161 178.301 158.95" stroke="#2E353A" stroke-linecap="round" stroke-linejoin="round"/>
<path d="M165.355 113.397C165.355 113.397 172.401 142.954 192.116 152.524" stroke="#2E353A" stroke-linecap="round" stroke-linejoin="round"/>
<path d="M57.7749 136.912L182.835 123.157" stroke="#2E353A" stroke-linecap="round" stroke-linejoin="round"/>
<path d="M61.0381 151.626C61.0381 151.626 87.7396 150.579 188.652 131.982" stroke="#2E353A" stroke-linecap="round" stroke-linejoin="round"/>
<path d="M65.7493 167.202C65.7493 167.202 91.7591 170.158 193.659 137.71" stroke="#2E353A" stroke-linecap="round" stroke-linejoin="round"/>
<path d="M71.377 180.792C71.377 180.792 93.0597 187.974 199.57 142.368" stroke="#2E353A" stroke-linecap="round" stroke-linejoin="round"/>
<path d="M100.218 90.8276L60.1276 90.2897C59.8029 90.2848 59.4909 90.1623 59.2495 89.9449C59.0082 89.7275 58.8539 89.4299 58.8153 89.1074L58.4725 85.868C58.4524 85.6815 58.4721 85.493 58.5303 85.3147C58.5885 85.1365 58.684 84.9727 58.8103 84.8341C58.9366 84.6955 59.0909 84.5853 59.2629 84.5108C59.435 84.4363 59.621 84.3992 59.8084 84.402L99.4144 85.0877C99.707 85.0928 99.9899 85.1939 100.22 85.3755C100.449 85.5571 100.613 85.809 100.685 86.0926L101.489 89.1724C101.54 89.3672 101.545 89.5708 101.505 89.7679C101.464 89.965 101.38 90.1504 101.257 90.3099C101.135 90.4695 100.978 90.599 100.798 90.6887C100.618 90.7784 100.419 90.8259 100.218 90.8276Z" fill="white"/>
</g>
<defs>
<clipPath id="clip0_7_2053">
<rect width="240" height="240" fill="white" transform="translate(0.5)"/>
</clipPath>
</defs>
</svg>
