<svg width="241" height="240" viewBox="0 0 241 240" fill="none" xmlns="http://www.w3.org/2000/svg">
<g clip-path="url(#clip0_7_1348)">
<path d="M232.297 83.921C230.708 79.8576 228.705 75.9688 226.319 72.316C215.759 56.2025 196.182 45.5392 179.437 37.3671C128.399 12.4557 85.8671 39.7975 62.1709 67.7468C38.4747 95.6962 10.5253 110.278 7.48732 140.658C4.44935 171.038 22.0696 204.456 70.6772 209.924C119.285 215.392 157.563 178.329 190.373 182.582C240.512 189.077 245.057 116.288 232.297 83.921Z" fill="#FFAC4B"/>
<path opacity="0.8" d="M232.297 83.921C230.708 79.8576 228.705 75.9688 226.319 72.316C215.759 56.2025 196.182 45.5392 179.437 37.3671C128.399 12.4557 85.8671 39.7975 62.1709 67.7468C38.4747 95.6962 10.5253 110.278 7.48732 140.658C4.44935 171.038 22.0696 204.456 70.6772 209.924C119.285 215.392 157.563 178.329 190.373 182.582C240.512 189.077 245.057 116.288 232.297 83.921Z" fill="white"/>
<path d="M115.554 92.9924C109.746 89.0127 101.057 88.3261 101.057 88.3261C113.817 86.3271 126.054 90.3311 126.054 90.3311C126.054 90.3311 117.912 84.3281 112.079 84.3281C106.246 84.3281 96.9679 83.6597 96.9679 83.6597C100.449 79.6618 113.209 74.9954 113.209 74.9954C113.209 74.9954 103.907 74.9954 99.8419 75.6638C95.7771 76.3321 94.6105 80.9924 94.6105 80.9924C94.6105 80.9924 93.45 78.3251 84.731 76.3261C76.012 74.3271 73.7153 80.9924 73.7153 80.9924H81.851C84.7614 80.9924 88.8262 84.9964 88.8262 84.9964C88.8262 84.9964 79.53 84.9964 76.0667 86.9954C73.0652 88.7149 69.213 95.8542 68.1679 97.8167C70.5594 85.5243 73.9571 73.4492 78.3269 61.7134L78.5578 61.5372C84.2753 57.4177 86.73 54.9873 86.73 54.9873L96.5669 71.3924L95.7467 57.4177C95.7467 57.4177 103.937 59.8785 106.398 62.3332C108.859 64.7878 116.247 73.0086 116.247 73.0086C116.247 73.0086 112.966 60.723 108.871 56.6035C104.776 52.484 97.4115 47.6111 97.4115 47.6111C97.4115 47.6111 106.428 47.6111 109.703 49.2516C112.978 50.8921 122.785 57.4177 122.785 57.4177C122.785 57.4177 116.247 45.9706 111.313 43.5159C106.38 41.0613 93.2859 41.0552 93.2859 41.0552C93.2859 41.0552 99.0216 36.1397 103.117 36.1397H114.588C114.588 36.1397 111.313 27.9494 99.0216 30.404C86.73 32.8587 85.0955 36.1519 85.0955 36.1519C85.0955 36.1519 83.455 30.4162 77.7193 29.602C71.9836 28.7878 58.8839 28.7818 58.8839 28.7818C58.8839 28.7818 76.9052 34.5175 81.8206 39.4329C81.8206 39.4329 68.7148 40.2532 60.5183 40.2532C52.3219 40.2532 40.8566 47.6233 40.8566 47.6233C40.8566 47.6233 58.0636 42.7078 76.0971 45.1929C76.0971 45.1929 63.8115 46.0071 55.615 50.9286C47.4186 55.8501 39.21 67.3337 39.21 67.3337C39.21 67.3337 46.5862 59.9635 56.4171 57.5028C66.2479 55.042 80.1801 51.7671 80.1801 51.7671C80.1801 51.7671 66.2479 63.1777 64.6014 68.9134C62.9548 74.6491 58.0454 84.48 58.0454 84.48C58.0454 84.48 69.7902 69.4724 76.3948 63.3357C70.9264 78.404 64.0302 102.677 63.1796 130.712C60.7492 120.772 53.6647 100.198 35.1269 89.8876C38.6388 90.8476 43.7001 92.2451 47.7831 93.4116C54.7583 95.4106 59.9897 101.414 59.9897 101.414C59.9897 101.414 54.175 92.081 48.3604 88.077C42.5457 84.0729 33.8267 83.4106 33.8267 83.4106C46.5862 81.4116 58.8231 85.4096 58.8231 85.4096C58.8231 85.4096 50.6874 79.4126 44.8484 79.4126C39.0095 79.4126 29.7376 78.7443 29.7376 78.7443C33.2252 74.7463 46.015 70.08 46.015 70.08C46.015 70.08 36.7128 70.08 32.6479 70.7423C28.5831 71.4045 27.4166 76.077 27.4166 76.077C27.4166 76.077 26.256 73.4096 17.531 71.4106C8.80592 69.4116 6.49098 76.077 6.49098 76.077H14.6571C17.5614 76.077 21.6322 80.081 21.6322 80.081C21.6322 80.081 12.33 80.081 8.87276 82.08C5.41554 84.079 0.737061 93.4116 0.737061 93.4116C0.737061 93.4116 7.71225 88.077 10.0393 86.7281C12.3664 85.3792 18.7583 85.3914 18.7583 85.3914C18.7583 85.3914 13.5269 89.3954 10.6166 92.7251C7.70618 96.0547 5.38516 106.092 5.38516 106.092C5.38516 106.092 10.6166 99.4086 12.3603 97.4278C14.1041 95.4471 19.9188 93.4238 19.9188 93.4238L19.3112 104.762L26.2925 91.3944C28.0942 93.3138 30.0357 95.0969 32.1011 96.7291C36.172 100.059 46.6348 115.394 46.6348 115.394C46.6348 115.394 43.1472 107.392 41.9867 102.726C41.0267 98.8861 34.1669 91.8866 31.773 89.5352C55.4692 100.654 61.7396 128.64 62.8819 135.105H53.0571L55.2201 154.141H72.5001L74.6571 135.105H64.5102C65.1178 131.228 67.293 119.654 73.0166 109.142C72.7188 110.248 72.5487 110.965 72.5487 110.965C72.5487 110.965 77.7801 104.282 79.53 102.301C81.2798 100.32 87.0824 98.3271 87.0824 98.3271L86.4748 109.671L93.45 96.3038C95.2531 98.2239 97.1967 100.007 99.2647 101.638C103.329 104.974 113.792 120.304 113.792 120.304C113.792 120.304 110.305 112.302 109.144 107.635C107.984 102.969 98.0981 93.6608 98.0981 93.6608C98.0981 93.6608 107.984 96.3281 114.959 98.3271C121.934 100.326 127.184 106.329 127.184 106.329C127.184 106.329 121.369 96.9965 115.554 92.9924ZM64.4738 128.932C64.9077 118.606 66.1141 108.327 68.0829 98.1813C69.1826 97.3428 75.0824 92.8709 77.1968 91.6618C79.5239 90.3311 85.9158 90.3311 85.9158 90.3311C85.9158 90.3311 80.6844 94.3291 77.774 97.6648C76.5224 99.1048 75.374 101.79 74.4748 104.348C68.9639 112.66 65.9806 122.43 64.4738 128.932Z" fill="#FFAC4B"/>
<path opacity="0.5" d="M115.554 92.9924C109.746 89.0127 101.057 88.3261 101.057 88.3261C113.817 86.3271 126.054 90.3311 126.054 90.3311C126.054 90.3311 117.912 84.3281 112.079 84.3281C106.246 84.3281 96.9679 83.6597 96.9679 83.6597C100.449 79.6618 113.209 74.9954 113.209 74.9954C113.209 74.9954 103.907 74.9954 99.8419 75.6638C95.7771 76.3321 94.6105 80.9924 94.6105 80.9924C94.6105 80.9924 93.45 78.3251 84.731 76.3261C76.012 74.3271 73.7153 80.9924 73.7153 80.9924H81.851C84.7614 80.9924 88.8262 84.9964 88.8262 84.9964C88.8262 84.9964 79.53 84.9964 76.0667 86.9954C73.0652 88.7149 69.213 95.8542 68.1679 97.8167C70.5594 85.5243 73.9571 73.4492 78.3269 61.7134L78.5578 61.5372C84.2753 57.4177 86.73 54.9873 86.73 54.9873L96.5669 71.3924L95.7467 57.4177C95.7467 57.4177 103.937 59.8785 106.398 62.3332C108.859 64.7878 116.247 73.0086 116.247 73.0086C116.247 73.0086 112.966 60.723 108.871 56.6035C104.776 52.484 97.4115 47.6111 97.4115 47.6111C97.4115 47.6111 106.428 47.6111 109.703 49.2516C112.978 50.8921 122.785 57.4177 122.785 57.4177C122.785 57.4177 116.247 45.9706 111.313 43.5159C106.38 41.0613 93.2859 41.0552 93.2859 41.0552C93.2859 41.0552 99.0216 36.1397 103.117 36.1397H114.588C114.588 36.1397 111.313 27.9494 99.0216 30.404C86.73 32.8587 85.0955 36.1519 85.0955 36.1519C85.0955 36.1519 83.455 30.4162 77.7193 29.602C71.9836 28.7878 58.8839 28.7818 58.8839 28.7818C58.8839 28.7818 76.9052 34.5175 81.8206 39.4329C81.8206 39.4329 68.7148 40.2532 60.5183 40.2532C52.3219 40.2532 40.8566 47.6233 40.8566 47.6233C40.8566 47.6233 58.0636 42.7078 76.0971 45.1929C76.0971 45.1929 63.8115 46.0071 55.615 50.9286C47.4186 55.8501 39.21 67.3337 39.21 67.3337C39.21 67.3337 46.5862 59.9635 56.4171 57.5028C66.2479 55.042 80.1801 51.7671 80.1801 51.7671C80.1801 51.7671 66.2479 63.1777 64.6014 68.9134C62.9548 74.6491 58.0454 84.48 58.0454 84.48C58.0454 84.48 69.7902 69.4724 76.3948 63.3357C70.9264 78.404 64.0302 102.677 63.1796 130.712C60.7492 120.772 53.6647 100.198 35.1269 89.8876C38.6388 90.8476 43.7001 92.2451 47.7831 93.4116C54.7583 95.4106 59.9897 101.414 59.9897 101.414C59.9897 101.414 54.175 92.081 48.3604 88.077C42.5457 84.0729 33.8267 83.4106 33.8267 83.4106C46.5862 81.4116 58.8231 85.4096 58.8231 85.4096C58.8231 85.4096 50.6874 79.4126 44.8484 79.4126C39.0095 79.4126 29.7376 78.7443 29.7376 78.7443C33.2252 74.7463 46.015 70.08 46.015 70.08C46.015 70.08 36.7128 70.08 32.6479 70.7423C28.5831 71.4045 27.4166 76.077 27.4166 76.077C27.4166 76.077 26.256 73.4096 17.531 71.4106C8.80592 69.4116 6.49098 76.077 6.49098 76.077H14.6571C17.5614 76.077 21.6322 80.081 21.6322 80.081C21.6322 80.081 12.33 80.081 8.87276 82.08C5.41554 84.079 0.737061 93.4116 0.737061 93.4116C0.737061 93.4116 7.71225 88.077 10.0393 86.7281C12.3664 85.3792 18.7583 85.3914 18.7583 85.3914C18.7583 85.3914 13.5269 89.3954 10.6166 92.7251C7.70618 96.0547 5.38516 106.092 5.38516 106.092C5.38516 106.092 10.6166 99.4086 12.3603 97.4278C14.1041 95.4471 19.9188 93.4238 19.9188 93.4238L19.3112 104.762L26.2925 91.3944C28.0942 93.3138 30.0357 95.0969 32.1011 96.7291C36.172 100.059 46.6348 115.394 46.6348 115.394C46.6348 115.394 43.1472 107.392 41.9867 102.726C41.0267 98.8861 34.1669 91.8866 31.773 89.5352C55.4692 100.654 61.7396 128.64 62.8819 135.105H53.0571L55.2201 154.141H72.5001L74.6571 135.105H64.5102C65.1178 131.228 67.293 119.654 73.0166 109.142C72.7188 110.248 72.5487 110.965 72.5487 110.965C72.5487 110.965 77.7801 104.282 79.53 102.301C81.2798 100.32 87.0824 98.3271 87.0824 98.3271L86.4748 109.671L93.45 96.3038C95.2531 98.2239 97.1967 100.007 99.2647 101.638C103.329 104.974 113.792 120.304 113.792 120.304C113.792 120.304 110.305 112.302 109.144 107.635C107.984 102.969 98.0981 93.6608 98.0981 93.6608C98.0981 93.6608 107.984 96.3281 114.959 98.3271C121.934 100.326 127.184 106.329 127.184 106.329C127.184 106.329 121.369 96.9965 115.554 92.9924ZM64.4738 128.932C64.9077 118.606 66.1141 108.327 68.0829 98.1813C69.1826 97.3428 75.0824 92.8709 77.1968 91.6618C79.5239 90.3311 85.9158 90.3311 85.9158 90.3311C85.9158 90.3311 80.6844 94.3291 77.774 97.6648C76.5224 99.1048 75.374 101.79 74.4748 104.348C68.9639 112.66 65.9806 122.43 64.4738 128.932Z" fill="white"/>
<path d="M149.707 99.9919C154.076 92.7008 155.656 83.6901 153.353 75.518C150.965 66.963 144.142 59.6111 135.581 57.2415C125.859 54.5559 115.481 58.2562 106.799 63.3782C98.1163 68.5002 90.2844 75.117 81.0065 79.1028C78.3391 80.2451 75.2282 81.1504 72.6216 79.8987C64.2247 75.8643 77.0449 68.6035 79.9128 66.8537C87.0817 62.4541 94.6201 58.687 102.442 55.5949C113.665 51.1595 125.786 48.1094 137.744 49.683C149.701 51.2567 161.44 58.1468 166.367 69.1686C170.311 78.0395 169.454 88.241 167.965 97.8349C167.492 100.909 166.872 104.154 164.769 106.445C161.64 109.853 156.318 110.005 151.755 109.185C150.066 108.887 148.176 108.31 147.453 106.754C146.578 104.853 147.933 102.744 149.069 100.988C149.288 100.672 149.501 100.34 149.707 99.9919Z" fill="#FFAC4B"/>
<mask id="mask0_7_1348" style="mask-type:luminance" maskUnits="userSpaceOnUse" x="69" y="49" width="101" height="61">
<path d="M149.707 99.9919C154.076 92.7008 155.656 83.6901 153.353 75.518C150.965 66.963 144.142 59.6111 135.581 57.2415C125.859 54.5559 115.481 58.2562 106.799 63.3782C98.1163 68.5002 90.2844 75.117 81.0065 79.1028C78.3391 80.2451 75.2282 81.1504 72.6216 79.8987C64.2247 75.8643 77.0449 68.6035 79.9128 66.8537C87.0817 62.4541 94.6201 58.687 102.442 55.5949C113.665 51.1595 125.786 48.1094 137.744 49.683C149.701 51.2567 161.44 58.1468 166.367 69.1686C170.311 78.0395 169.454 88.241 167.965 97.8349C167.492 100.909 166.872 104.154 164.769 106.445C161.64 109.853 156.318 110.005 151.755 109.185C150.066 108.887 148.176 108.31 147.453 106.754C146.578 104.853 147.933 102.744 149.069 100.988C149.288 100.672 149.501 100.34 149.707 99.9919Z" fill="white"/>
</mask>
<g mask="url(#mask0_7_1348)">
<path d="M85.8003 63.4451C83.8195 64.5387 81.857 65.6689 79.9248 66.8537C77.0631 68.6035 64.2428 75.8643 72.6337 79.8987C75.2403 81.1504 78.3512 80.2451 81.0185 79.1028C84.9989 77.3228 88.8203 75.2067 92.4413 72.7777C91.2686 67.358 88.6013 64.7089 85.8003 63.4451Z" fill="white"/>
</g>
<path d="M149.707 99.9919C154.076 92.7008 155.656 83.6901 153.353 75.518C150.965 66.963 144.142 59.6111 135.581 57.2415C125.859 54.5559 115.481 58.2562 106.799 63.3782C98.1163 68.5002 90.2844 75.117 81.0065 79.1028C78.3391 80.2451 75.2282 81.1504 72.6216 79.8987C64.2247 75.8643 77.0449 68.6035 79.9128 66.8537C87.0817 62.4541 94.6201 58.687 102.442 55.5949C113.665 51.1595 125.786 48.1094 137.744 49.683C149.701 51.2567 161.44 58.1468 166.367 69.1686C170.311 78.0395 169.454 88.241 167.965 97.8349C167.492 100.909 166.872 104.154 164.769 106.445C161.64 109.853 156.318 110.005 151.755 109.185C150.066 108.887 148.176 108.31 147.453 106.754C146.578 104.853 147.933 102.744 149.069 100.988C149.288 100.672 149.501 100.34 149.707 99.9919Z" stroke="#263238" stroke-width="1.5" stroke-miterlimit="10"/>
<path d="M149.707 99.9919C154.076 92.7008 155.656 83.6901 153.353 75.518C150.965 66.963 144.142 59.6111 135.581 57.2415C125.859 54.5559 115.481 58.2562 106.799 63.3782C98.1163 68.5002 90.2844 75.117 81.0065 79.1028C78.3391 80.2451 75.2282 81.1504 72.6216 79.8987C64.2247 75.8643 77.0449 68.6035 79.9128 66.8537C87.0817 62.4541 94.6201 58.687 102.442 55.5949C113.665 51.1595 125.786 48.1094 137.744 49.683C149.701 51.2567 161.44 58.1468 166.367 69.1686C170.311 78.0395 169.454 88.241 167.965 97.8349C167.492 100.909 166.872 104.154 164.769 106.445C161.64 109.853 156.318 110.005 151.755 109.185C150.066 108.887 148.176 108.31 147.453 106.754C146.578 104.853 147.933 102.744 149.069 100.988C149.288 100.672 149.501 100.34 149.707 99.9919Z" fill="#FFAC4B"/>
<mask id="mask1_7_1348" style="mask-type:luminance" maskUnits="userSpaceOnUse" x="69" y="49" width="101" height="61">
<path d="M149.707 99.9919C154.076 92.7008 155.656 83.6901 153.353 75.518C150.965 66.963 144.142 59.6111 135.581 57.2415C125.859 54.5559 115.481 58.2562 106.799 63.3782C98.1163 68.5002 90.2844 75.117 81.0065 79.1028C78.3391 80.2451 75.2282 81.1504 72.6216 79.8987C64.2247 75.8643 77.0449 68.6035 79.9128 66.8537C87.0817 62.4541 94.6201 58.687 102.442 55.5949C113.665 51.1595 125.786 48.1094 137.744 49.683C149.701 51.2567 161.44 58.1468 166.367 69.1686C170.311 78.0395 169.454 88.241 167.965 97.8349C167.492 100.909 166.872 104.154 164.769 106.445C161.64 109.853 156.318 110.005 151.755 109.185C150.066 108.887 148.176 108.31 147.453 106.754C146.578 104.853 147.933 102.744 149.069 100.988C149.288 100.672 149.501 100.34 149.707 99.9919Z" fill="white"/>
</mask>
<g mask="url(#mask1_7_1348)">
<path d="M147.161 57.5757C145.302 61.1848 147.161 62.0901 147.161 62.0901C147.161 62.0901 146.979 60.5893 148.127 57.922C148.699 56.4248 149.836 55.2118 151.293 54.5438C151.293 54.5438 149.021 53.9605 147.161 57.5757Z" fill="#263238"/>
<path d="M137.13 53.3408C135.842 56.5306 137.367 57.4359 137.367 57.4359C137.285 56.1662 137.477 54.8937 137.932 53.7053C138.704 51.3418 140.259 50.7949 140.259 50.7949C140.259 50.7949 138.424 50.1266 137.13 53.3408Z" fill="#263238"/>
<path d="M125.507 52.0344C124.219 55.2243 125.744 56.1296 125.744 56.1296C125.657 54.8602 125.847 53.5871 126.303 52.399C127.08 50.0354 128.63 49.4886 128.63 49.4886C128.63 49.4886 126.795 48.8445 125.507 52.0344Z" fill="#263238"/>
<path d="M159.842 61.8592C159.842 61.8592 158.171 59.7934 154.015 61.5676C149.859 63.3418 150.934 65.4015 150.934 65.4015C150.934 65.4015 151.803 64.0101 154.671 62.5458C156.245 61.6683 158.094 61.4228 159.842 61.8592Z" fill="#263238"/>
<path d="M157.897 69.3205C159.406 68.3364 161.232 67.9608 163.007 68.2694C163.007 68.2694 161.185 66.3251 157.168 68.397C153.152 70.4689 154.373 72.4375 154.373 72.4375C154.373 72.4375 155.133 70.9853 157.897 69.3205Z" fill="#263238"/>
<path d="M159.994 76.2531C154.525 77.5899 155.254 80.3848 155.254 80.3848C155.254 80.3848 156.676 78.8293 160.504 77.6081C164.332 76.3868 166.86 77.8572 166.86 77.8572C166.86 77.8572 165.462 74.9347 159.994 76.2531Z" fill="#263238"/>
<path d="M159.909 88.8668C154.404 89.9726 154.999 92.798 154.999 92.798C154.999 92.798 156.488 91.3033 160.364 90.24C164.241 89.1767 166.702 90.7504 166.702 90.7504C166.702 90.7504 165.413 87.7549 159.909 88.8668Z" fill="#263238"/>
<path d="M85.8003 63.445C83.8195 64.5387 81.857 65.6688 79.9248 66.8536C77.0631 68.6035 64.2428 75.8643 72.6337 79.8987C75.2403 81.1504 78.3512 80.245 81.0185 79.1028C84.9989 77.3227 88.8203 75.2067 92.4413 72.7777C91.2686 67.3579 88.6013 64.7088 85.8003 63.445Z" fill="white"/>
</g>
<path d="M149.707 99.9919C154.076 92.7008 155.656 83.6901 153.353 75.518C150.965 66.963 144.142 59.6111 135.581 57.2415C125.859 54.5559 115.481 58.2562 106.799 63.3782C98.1163 68.5002 90.2844 75.117 81.0065 79.1028C78.3391 80.2451 75.2282 81.1504 72.6216 79.8987C64.2247 75.8643 77.0449 68.6035 79.9128 66.8537C87.0817 62.4541 94.6201 58.687 102.442 55.5949C113.665 51.1595 125.786 48.1094 137.744 49.683C149.701 51.2567 161.44 58.1468 166.367 69.1686C170.311 78.0395 169.454 88.241 167.965 97.8349C167.492 100.909 166.872 104.154 164.769 106.445C161.64 109.853 156.318 110.005 151.755 109.185C150.066 108.887 148.176 108.31 147.453 106.754C146.578 104.853 147.933 102.744 149.069 100.988C149.288 100.672 149.501 100.34 149.707 99.9919Z" stroke="#263238" stroke-width="1.5" stroke-miterlimit="10"/>
<path d="M139.943 174.422C139.943 174.422 165.553 176.689 160.042 178.961C154.532 181.233 150.321 180.255 128.271 183.172C106.222 186.088 74.4566 186.094 59.8683 186.094C45.2799 186.094 41.3913 188.689 49.8186 188.689C58.246 188.689 75.4288 188.689 108.822 189.983C142.216 191.277 181.734 199.06 201.857 190.955C221.981 182.85 202.507 175.716 202.507 175.716C202.507 175.716 210.291 174.1 203.807 171.506C197.324 168.911 172.358 166.317 160.668 164.695C148.978 163.072 142.519 166.639 150.619 166.639C158.718 166.639 196.978 170.534 192.117 173.772C187.257 177.011 163.591 173.45 155.807 171.828C148.024 170.206 137.981 171.828 139.943 174.422Z" fill="#263238"/>
<path d="M167.692 161.195C167.692 161.195 169.752 171.305 172.929 176.737C176.107 182.169 182.481 181.792 183.416 177.485C184.352 173.177 180.05 167.763 178.926 163.631C177.802 159.5 177.991 152.209 177.991 152.209C177.991 152.209 167.315 151.273 167.692 161.195Z" fill="#FFAC4B"/>
<mask id="mask2_7_1348" style="mask-type:luminance" maskUnits="userSpaceOnUse" x="167" y="152" width="17" height="29">
<path d="M167.692 161.195C167.692 161.195 169.752 171.305 172.929 176.737C176.107 182.169 182.481 181.792 183.416 177.485C184.352 173.177 180.05 167.763 178.926 163.631C177.802 159.5 177.991 152.209 177.991 152.209C177.991 152.209 167.315 151.273 167.692 161.195Z" fill="white"/>
</mask>
<g mask="url(#mask2_7_1348)">
<path d="M171.143 172.976C171.647 174.271 172.244 175.528 172.929 176.737C176.113 182.169 182.481 181.792 183.416 177.485C184.115 174.295 181.928 170.485 180.293 167.052C178.395 167.199 176.564 167.818 174.966 168.852C173.368 169.887 172.054 171.304 171.143 172.976Z" fill="white"/>
</g>
<path d="M167.692 161.195C167.692 161.195 169.752 171.305 172.929 176.737C176.107 182.169 182.481 181.792 183.416 177.485C184.352 173.177 180.05 167.763 178.926 163.631C177.802 159.5 177.991 152.209 177.991 152.209C177.991 152.209 167.315 151.273 167.692 161.195Z" stroke="#263238" stroke-width="1.5" stroke-miterlimit="10"/>
<path d="M176.678 173.742C176.678 173.742 179.297 177.114 178.55 180.486" stroke="#263238" stroke-width="1.5" stroke-miterlimit="10" stroke-linecap="round"/>
<path d="M179.862 172.429C181.004 173.08 181.876 174.117 182.322 175.353C182.768 176.589 182.757 177.944 182.292 179.174" stroke="#263238" stroke-width="1.5" stroke-miterlimit="10" stroke-linecap="round"/>
<path d="M161.695 166.438C161.695 166.438 156.269 172.059 150.461 173.73C144.652 175.401 138.849 175.042 139.603 172.417C140.356 169.792 142.969 168.863 146.341 168.863C149.713 168.863 156.67 161.93 156.67 161.93C156.67 161.93 164.131 157.264 161.695 166.438Z" fill="#FFAC4B" stroke="#263238" stroke-width="1.5" stroke-miterlimit="10"/>
<path d="M96.1537 138.914C96.1537 138.914 88.1031 142.657 86.6024 146.777C85.6274 149.584 84.8777 152.465 84.3603 155.392C84.3603 155.392 74.2439 160.071 66.57 162.684C58.896 165.296 51.0277 166.238 46.5193 169.422C42.011 172.606 41.8348 176.166 44.4596 178.785C47.0844 181.404 52.3219 180.474 54.011 179.532C55.7001 178.59 59.6251 174.854 64.8687 173.918C70.1122 172.982 85.8429 176.166 95.0176 174.289C104.192 172.411 112.03 169.428 114.12 169.428C116.21 169.428 124.449 170.552 129.851 166.997C135.253 163.443 131.722 146.947 127.603 138.908C123.483 130.87 101.774 136.101 96.1537 138.914Z" fill="#FFAC4B"/>
<mask id="mask3_7_1348" style="mask-type:luminance" maskUnits="userSpaceOnUse" x="42" y="134" width="91" height="47">
<path d="M96.1537 138.914C96.1537 138.914 88.1031 142.657 86.6024 146.777C85.6274 149.584 84.8777 152.465 84.3603 155.392C84.3603 155.392 74.2439 160.071 66.57 162.684C58.896 165.296 51.0277 166.238 46.5193 169.422C42.011 172.606 41.8348 176.166 44.4596 178.785C47.0844 181.404 52.3219 180.474 54.011 179.532C55.7001 178.59 59.6251 174.854 64.8687 173.918C70.1122 172.982 85.8429 176.166 95.0176 174.289C104.192 172.411 112.03 169.428 114.12 169.428C116.21 169.428 124.449 170.552 129.851 166.997C135.253 163.443 131.722 146.947 127.603 138.908C123.483 130.87 101.774 136.101 96.1537 138.914Z" fill="white"/>
</mask>
<g mask="url(#mask3_7_1348)">
<path d="M115.251 153.74C112 148.356 109.333 138.246 104.162 136.265C101.41 136.877 98.7274 137.764 96.1539 138.914C96.1539 138.914 95.3154 139.303 94.1245 139.972C92.2106 142.165 92.3017 144.547 94.2156 146.048C97.3751 148.478 108.591 161.474 105.438 160.417C104.917 160.228 104.423 159.973 103.968 159.658C100.577 157.44 95.3458 151.716 91.4146 149.906C86.8577 147.797 95.6192 159.366 95.6192 162.872C95.6192 166.378 92.1134 163.224 88.9356 159.366C85.7579 155.508 85.0774 159.02 86.8334 162.872C88.5893 166.724 86.1286 168.48 78.7706 168.48C71.4126 168.48 62.645 168.832 62.645 168.832C62.3767 167.2 61.6057 165.692 60.4394 164.518C54.9164 165.989 49.8065 167.119 46.5073 169.452C42.0111 172.636 41.8227 176.196 44.4475 178.815C47.0724 181.434 52.3098 180.504 53.9989 179.563C55.688 178.621 59.6131 174.884 64.8567 173.948C70.1002 173.013 85.8308 176.196 95.0055 174.319C104.18 172.441 112.018 169.458 114.108 169.458C116.028 169.458 123.307 170.43 128.691 167.69C126.534 165.91 118.629 159.336 115.251 153.74Z" fill="white"/>
</g>
<path d="M96.1537 138.914C96.1537 138.914 88.1031 142.657 86.6024 146.777C85.6274 149.584 84.8777 152.465 84.3603 155.392C84.3603 155.392 74.2439 160.071 66.57 162.684C58.896 165.296 51.0277 166.238 46.5193 169.422C42.011 172.606 41.8348 176.166 44.4596 178.785C47.0844 181.404 52.3219 180.474 54.011 179.532C55.7001 178.59 59.6251 174.854 64.8687 173.918C70.1122 172.982 85.8429 176.166 95.0175 174.289C104.192 172.411 112.03 169.428 114.12 169.428C116.21 169.428 124.449 170.552 129.851 166.997C135.252 163.443 131.722 146.947 127.603 138.908C123.483 130.87 101.774 136.101 96.1537 138.914Z" stroke="#263238" stroke-width="1.5" stroke-miterlimit="10"/>
<path d="M46.5315 175.802C47.3604 175.802 48.0323 175.13 48.0323 174.301C48.0323 173.472 47.3604 172.8 46.5315 172.8C45.7027 172.8 45.0308 173.472 45.0308 174.301C45.0308 175.13 45.7027 175.802 46.5315 175.802Z" fill="#263238"/>
<path d="M52.7107 176.36C54.261 176.36 55.5177 175.104 55.5177 173.553C55.5177 172.003 54.261 170.746 52.7107 170.746C51.1603 170.746 49.9036 172.003 49.9036 173.553C49.9036 175.104 51.1603 176.36 52.7107 176.36Z" fill="#263238"/>
<path d="M48.968 179.174C49.7969 179.174 50.4688 178.502 50.4688 177.673C50.4688 176.844 49.7969 176.172 48.968 176.172C48.1392 176.172 47.4673 176.844 47.4673 177.673C47.4673 178.502 48.1392 179.174 48.968 179.174Z" fill="#263238"/>
<path d="M52.7107 179.174C53.5396 179.174 54.2115 178.502 54.2115 177.673C54.2115 176.844 53.5396 176.172 52.7107 176.172C51.8819 176.172 51.21 176.844 51.21 177.673C51.21 178.502 51.8819 179.174 52.7107 179.174Z" fill="#263238"/>
<path d="M108.889 155.575C117.505 164.938 123.872 169.063 132.67 170.157C141.468 171.251 152.897 170.157 161.695 166.414C170.493 162.671 172.559 160.235 172.559 160.235C174.634 159.184 176.635 157.994 178.55 156.674C182.858 153.867 190.702 145.628 192.78 134.953C194.554 125.76 193.096 115.571 188.375 107.441C182.906 97.9868 172.844 93.1443 162.078 92.9559C155.534 92.8466 149.47 95.198 144.093 98.8131C133.794 105.74 131.334 111.737 131.334 111.737H120.688C120.688 111.737 115.445 109.677 105.894 119.411" fill="#FFAC4B"/>
<mask id="mask4_7_1348" style="mask-type:luminance" maskUnits="userSpaceOnUse" x="105" y="92" width="89" height="79">
<path d="M108.889 155.575C117.505 164.938 123.872 169.063 132.67 170.157C141.468 171.251 152.897 170.157 161.695 166.414C170.493 162.671 172.559 160.235 172.559 160.235C174.634 159.184 176.635 157.994 178.55 156.674C182.858 153.867 190.702 145.628 192.78 134.953C194.554 125.76 193.096 115.571 188.375 107.441C182.906 97.9868 172.844 93.1443 162.078 92.9559C155.534 92.8466 149.47 95.198 144.093 98.8131C133.794 105.74 131.334 111.737 131.334 111.737H120.688C120.688 111.737 115.445 109.677 105.894 119.411" fill="white"/>
</mask>
<g mask="url(#mask4_7_1348)">
<path d="M185.713 137.62C185.015 130.937 181.509 138.325 180.458 140.774C178.386 145.634 179.406 129.229 176.247 125.353C173.087 121.476 176.952 134.819 175.901 139.376C174.85 143.933 175.548 136.217 173.094 131.66C170.639 127.103 174.145 137.62 168.889 143.581C163.633 149.541 154.161 143.933 154.161 143.933C158.56 156.383 146.797 165.94 139.257 170.6C146.706 170.637 154.969 169.306 161.695 166.445C170.499 162.702 172.559 160.265 172.559 160.265C174.634 159.214 176.635 158.025 178.55 156.705C179.729 155.907 180.839 155.011 181.867 154.025C184.796 148.162 186.205 142.287 185.713 137.62Z" fill="white"/>
</g>
<path d="M108.889 155.575C117.505 164.938 123.872 169.063 132.67 170.157C141.468 171.251 152.897 170.157 161.695 166.414C170.493 162.671 172.559 160.235 172.559 160.235C174.634 159.184 176.635 157.994 178.55 156.674C182.858 153.867 190.702 145.628 192.78 134.953C194.554 125.76 193.096 115.571 188.375 107.441C182.906 97.9868 172.844 93.1443 162.078 92.9559C155.534 92.8466 149.47 95.198 144.093 98.8131C133.794 105.74 131.334 111.737 131.334 111.737H120.688C120.688 111.737 115.445 109.677 105.894 119.411" stroke="#263238" stroke-width="1.5" stroke-miterlimit="10"/>
<path d="M99.1493 142.846C99.1493 142.846 105.517 152.567 116.162 154.997C126.807 157.428 129.456 142.639 128.52 134.947C127.585 127.255 124.213 127.455 122.906 129.144C121.6 130.833 115.415 135.883 109.235 137.195C103.056 138.507 98.2136 139.473 99.1493 142.846Z" fill="white"/>
<path d="M90.8494 101.286C88.8082 100.946 86.7385 100.807 84.6702 100.873C82.1972 101.079 77.2514 103.346 74.9851 103.753C72.7188 104.16 73.7699 104.968 76.6378 108.286C79.5056 111.603 86.3167 113.645 86.3167 113.645L90.8494 101.286Z" fill="#FFAC4B" stroke="#263238" stroke-width="1.5" stroke-miterlimit="10"/>
<path d="M126.485 125.383C126.485 125.383 122.985 134.242 117.632 137.128C114.451 138.857 110.92 139.843 107.303 140.014C107.303 140.014 103.597 143.514 96.7977 143.927C89.9988 144.34 85.861 138.155 85.861 136.095V130.536C85.861 130.536 81.535 125.177 81.7415 122.297C81.9481 119.417 82.1547 106.432 89.5734 101.286C96.9922 96.1398 104.198 96.7534 109.964 97.9869C115.73 99.2203 122.116 106.226 124.176 110.345C126.236 114.465 126.242 119.617 126.242 119.617" fill="#FFAC4B"/>
<mask id="mask5_7_1348" style="mask-type:luminance" maskUnits="userSpaceOnUse" x="81" y="97" width="46" height="47">
<path d="M126.485 125.383C126.485 125.383 122.985 134.242 117.632 137.128C114.451 138.857 110.92 139.843 107.303 140.014C107.303 140.014 103.597 143.514 96.7977 143.927C89.9988 144.34 85.861 138.155 85.861 136.095V130.536C85.861 130.536 81.535 125.177 81.7415 122.297C81.9481 119.417 82.1547 106.432 89.5734 101.286C96.9922 96.1398 104.198 96.7534 109.964 97.9869C115.73 99.2203 122.116 106.226 124.176 110.345C126.236 114.465 126.242 119.617 126.242 119.617" fill="white"/>
</mask>
<g mask="url(#mask5_7_1348)">
<path d="M97.3751 134.461L94.2156 129.199C94.2156 129.199 93.5168 122.892 90.011 119.386C86.5052 115.881 88.9052 130.329 88.9052 130.329C87.8576 130.559 86.8528 130.953 85.928 131.496V136.089C85.928 138.149 90.0475 144.334 96.8647 143.921C99.3654 143.782 101.816 143.163 104.083 142.098C102.941 136.715 97.3751 134.461 97.3751 134.461Z" fill="white"/>
<path d="M96.3906 132.152C96.3906 132.152 98.4625 128.008 103.9 131.113" stroke="#263238" stroke-width="2" stroke-miterlimit="10" stroke-linecap="round"/>
<path d="M84.9983 126.714C84.9983 126.714 87.0702 125.414 87.5866 129.041" stroke="#263238" stroke-width="2" stroke-miterlimit="10" stroke-linecap="round"/>
<path d="M90.6914 140.44C90.6914 140.44 91.9856 142.767 94.0636 143.544" stroke="#263238" stroke-miterlimit="10" stroke-linecap="round"/>
<path d="M98.7725 118.688C98.7725 118.688 100.176 123.591 107.188 124.642C114.199 125.693 116.569 122.898 114.333 120.444C112.097 117.989 100.176 118.688 98.7725 118.688Z" fill="#263238"/>
<path d="M114.333 120.444C114.333 120.444 108.567 122.09 104.034 122.09C99.5015 122.09 97.4418 118.177 96.4089 116.962C95.376 115.747 100.528 111.196 106.738 112.429C112.948 113.663 114.333 120.444 114.333 120.444Z" fill="#FFAC4B" stroke="#263238" stroke-width="1.5" stroke-miterlimit="10"/>
<path d="M92.5508 140.336C93.0611 139.893 93.1584 139.157 92.1801 138.835C90.886 138.41 88.7897 137.888 89.2272 139.188C89.4102 139.672 89.7473 140.082 90.1865 140.355C90.6257 140.629 91.1426 140.75 91.6576 140.701C91.987 140.68 92.3006 140.552 92.5508 140.336Z" fill="#263238"/>
<path d="M120.5 131.654C120.5 131.654 119.096 132.705 114.886 132.705C110.675 132.705 107.528 132.358 107.528 132.358C107.528 132.358 112.784 134.108 115.591 134.461C118.398 134.813 120.5 131.654 120.5 131.654Z" fill="#263238"/>
<path d="M116.302 136.563C116.302 136.563 113.871 138.665 111.046 137.614C108.221 136.563 104.733 134.813 104.733 134.813C104.733 134.813 113.501 137.268 116.302 136.563Z" fill="#263238"/>
<path d="M99.8418 105.011C99.8418 105.011 93.8874 107.441 93.1583 114.125C92.4292 120.808 93.1583 124.636 93.1583 124.636C93.1583 124.636 94.5679 111.324 99.8418 105.011Z" fill="#263238"/>
<path d="M90.3634 106.068C90.3634 106.068 86.8272 107.55 86.3168 113.645C85.8064 119.739 85.8064 123.974 85.8064 123.974C85.8064 123.974 87.5563 110.971 90.3634 106.068Z" fill="#263238"/>
</g>
<path d="M126.485 125.383C126.485 125.383 122.985 134.242 117.632 137.128C114.451 138.857 110.92 139.843 107.303 140.014C107.303 140.014 103.597 143.514 96.7977 143.927C89.9988 144.34 85.861 138.155 85.861 136.095V130.536C85.861 130.536 81.535 125.177 81.7415 122.297C81.9481 119.417 82.1547 106.432 89.5734 101.286C96.9922 96.1398 104.198 96.7534 109.964 97.9869C115.73 99.2203 122.116 106.226 124.176 110.345C126.236 114.465 126.242 119.617 126.242 119.617" stroke="#263238" stroke-width="1.5" stroke-miterlimit="10"/>
<path d="M85.9037 136.095C85.9037 136.095 76.6804 133.483 71.2485 133.294" stroke="#263238" stroke-width="0.5" stroke-miterlimit="10" stroke-linecap="round"/>
<path d="M86.0435 137.62C86.0435 137.62 73.284 136.496 67.3174 137.62" stroke="#263238" stroke-width="0.5" stroke-miterlimit="10" stroke-linecap="round"/>
<path d="M86.9792 138.914C86.9792 138.914 71.7893 139.662 67.3174 141.156" stroke="#263238" stroke-width="0.5" stroke-miterlimit="10" stroke-linecap="round"/>
<path d="M99.1492 142.092C99.1492 142.092 100.273 150.708 100.838 156.674" stroke="#263238" stroke-width="0.5" stroke-miterlimit="10" stroke-linecap="round"/>
<path d="M100.085 140.409C100.085 140.409 106.27 149.961 106.27 154.639" stroke="#263238" stroke-width="0.5" stroke-miterlimit="10" stroke-linecap="round"/>
<path d="M102.333 139.85C102.333 139.85 109.624 146.029 111.137 151.644" stroke="#263238" stroke-width="0.5" stroke-miterlimit="10" stroke-linecap="round"/>
<path d="M172.559 160.259C172.559 160.259 182.858 151.832 181.357 133.106" stroke="#263238" stroke-width="1.5" stroke-miterlimit="10" stroke-linecap="round"/>
<path d="M139.414 138.349C139.414 138.349 145.782 138.538 153.833 142.846C161.883 147.153 169.934 149.213 169.934 153.892C169.934 158.57 153.268 168.31 145.217 174.301C137.166 180.292 130.799 186.1 125.166 187.601C119.534 189.102 112.249 189.284 111.313 185.541C110.378 181.798 115.244 180.857 118.051 180.486C120.859 180.115 125.543 178.985 125.543 178.985L135.082 169.823C135.082 169.823 124.219 169.075 119.163 160.271" fill="#FFAC4B"/>
<mask id="mask6_7_1348" style="mask-type:luminance" maskUnits="userSpaceOnUse" x="111" y="138" width="59" height="51">
<path d="M139.414 138.349C139.414 138.349 145.782 138.538 153.833 142.846C161.883 147.153 169.934 149.213 169.934 153.892C169.934 158.57 153.268 168.31 145.217 174.301C137.166 180.292 130.799 186.1 125.166 187.601C119.534 189.102 112.249 189.284 111.313 185.541C110.378 181.798 115.244 180.857 118.051 180.486C120.859 180.115 125.543 178.985 125.543 178.985L135.082 169.823C135.082 169.823 124.219 169.075 119.163 160.271" fill="white"/>
</mask>
<g mask="url(#mask6_7_1348)">
<path d="M124.717 165.661C124.717 165.661 131.024 164.962 134.529 159.348C138.035 153.734 139.086 146.728 139.086 146.728C139.086 146.728 139.086 154.791 136.656 160.053C134.226 165.314 124.717 165.661 124.717 165.661Z" fill="#263238"/>
<path d="M144.348 143.575C144.348 143.575 147.854 150.586 144.701 156.194C142.795 159.564 140.008 162.351 136.638 164.257C136.638 164.257 145.752 155.848 144.348 143.575Z" fill="#263238"/>
<path d="M133.831 174.775L139.087 178.281C139.087 178.281 138.728 173.724 133.831 174.775Z" fill="#263238"/>
<path d="M138.728 169.519L143.984 173.025C143.984 173.025 143.65 168.462 138.728 169.519Z" fill="#263238"/>
<path d="M148.207 163.558L153.462 167.064C153.462 167.064 153.11 162.532 148.207 163.558Z" fill="#263238"/>
<path d="M153.814 158.278L159.07 161.784C159.07 161.784 158.724 157.246 153.814 158.278Z" fill="#263238"/>
<path d="M128.253 183.19C127.895 181.507 125.732 180.237 123.781 179.411C122.165 179.769 119.771 180.273 118.064 180.504C115.257 180.875 110.39 181.811 111.325 185.56C112.261 189.308 119.564 189.114 125.179 187.619C126.596 187.212 127.96 186.639 129.243 185.912C128.792 185.053 128.459 184.138 128.253 183.19Z" fill="white"/>
<path d="M150.655 158.278C153.085 154.773 149.956 159.682 142.592 164.239C135.228 168.796 124.717 165.643 124.717 165.643L124.383 165.861C127.573 168.034 131.246 169.393 135.082 169.823L130.829 173.936C138.655 171.038 148.358 161.584 150.655 158.278Z" fill="white"/>
</g>
<path d="M139.414 138.349C139.414 138.349 145.782 138.538 153.833 142.846C161.883 147.153 169.934 149.213 169.934 153.892C169.934 158.57 153.268 168.31 145.217 174.301C137.166 180.292 130.799 186.1 125.166 187.601C119.534 189.102 112.249 189.284 111.313 185.541C110.378 181.798 115.244 180.857 118.051 180.486C120.859 180.115 125.543 178.985 125.543 178.985L135.082 169.823C135.082 169.823 124.219 169.075 119.163 160.271" stroke="#263238" stroke-width="1.5" stroke-miterlimit="10"/>
<path d="M135.082 169.823C135.082 169.823 150.436 166.827 152.308 153.904" stroke="#263238" stroke-width="1.5" stroke-miterlimit="10" stroke-linecap="round"/>
<path d="M111.325 185.541C111.325 185.541 112.82 182.728 115.068 182.357" stroke="#263238" stroke-width="1.5" stroke-miterlimit="10" stroke-linecap="round"/>
<path d="M113.756 187.601C113.756 187.601 114.88 183.482 118.252 183.482" stroke="#263238" stroke-width="1.5" stroke-miterlimit="10" stroke-linecap="round"/>
<path d="M136.298 113.073C136.298 113.073 146.815 114.131 154.525 121.841C162.236 129.551 163.639 143.927 163.639 140.069C163.639 136.211 161.537 125.699 156.956 120.085C152.375 114.471 139.439 111.324 136.298 113.073Z" fill="#263238"/>
<path d="M128.089 117.132C128.089 117.132 136.553 117.977 142.756 124.18C148.96 130.384 150.09 141.952 150.09 138.835C150.09 135.718 148.395 127.291 144.731 122.758C141.067 118.226 130.629 115.747 128.089 117.132Z" fill="#263238"/>
<path d="M142.945 107.119C142.945 107.119 153.462 108.17 161.172 115.88C168.883 123.591 170.286 137.967 170.286 134.108C170.286 130.25 168.184 119.739 163.603 114.131C159.022 108.523 146.098 105.363 142.945 107.119Z" fill="#263238"/>
<path d="M151.712 96.9478C151.712 96.9478 162.224 97.999 169.94 105.715C177.656 113.432 179.054 127.802 179.054 123.943C179.054 120.085 176.952 109.568 172.37 103.959C167.789 98.3514 154.866 95.198 151.712 96.9478Z" fill="#263238"/>
<path d="M50.578 195.907C54.6048 195.907 57.8691 194.383 57.8691 192.504C57.8691 190.625 54.6048 189.102 50.578 189.102C46.5512 189.102 43.2869 190.625 43.2869 192.504C43.2869 194.383 46.5512 195.907 50.578 195.907Z" fill="#263238"/>
<path d="M48.0321 194.71C53.5119 194.71 57.9542 190.268 57.9542 184.788C57.9542 179.308 53.5119 174.866 48.0321 174.866C42.5523 174.866 38.1101 179.308 38.1101 184.788C38.1101 190.268 42.5523 194.71 48.0321 194.71Z" fill="#FFAC4B" stroke="#263238" stroke-width="1.5" stroke-miterlimit="10"/>
<path d="M47.6371 180.286C47.6169 180.808 47.4434 181.313 47.1383 181.738C46.8331 182.163 46.4098 182.489 45.921 182.675C45.4322 182.861 44.8994 182.899 44.389 182.785C43.8785 182.671 43.413 182.409 43.0502 182.032C42.6874 181.655 42.4435 181.18 42.3486 180.666C42.2538 180.151 42.3123 179.621 42.5169 179.139C42.7215 178.658 43.0631 178.247 43.4992 177.958C43.9353 177.67 44.4467 177.515 44.9698 177.515C45.327 177.521 45.6794 177.598 46.0069 177.741C46.3344 177.883 46.6306 178.089 46.8783 178.347C47.1261 178.604 47.3207 178.908 47.4509 179.241C47.5811 179.573 47.6444 179.928 47.6371 180.286Z" fill="white"/>
</g>
<defs>
<clipPath id="clip0_7_1348">
<rect width="240" height="240" fill="white" transform="translate(0.5)"/>
</clipPath>
</defs>
</svg>
