<svg width="29" height="29" viewBox="0 0 29 29" fill="none" xmlns="http://www.w3.org/2000/svg">
<path d="M9.5 22C8.51667 22 7.6875 21.6625 7.0125 20.9875C6.3375 20.3125 6 19.4833 6 18.5C6 18.35 6.02083 18.2333 6.0625 18.15C6.10417 18.0667 6.1 18 6.05 17.95C6 17.9 5.93333 17.8958 5.85 17.9375C5.76667 17.9792 5.65 18 5.5 18C4.51667 18 3.6875 17.6625 3.0125 16.9875C2.3375 16.3125 2 15.4833 2 14.5C2 13.5167 2.3375 12.6875 3.0125 12.0125C3.6875 11.3375 4.51667 11 5.5 11C5.88333 11 6.23333 11.05 6.55 11.15C6.86667 11.25 7.16667 11.4 7.45 11.6L11.6 7.45C11.4 7.16667 11.25 6.86667 11.15 6.55C11.05 6.23333 11 5.88333 11 5.5C11 4.51667 11.3375 3.6875 12.0125 3.0125C12.6875 2.3375 13.5167 2 14.5 2C15.4833 2 16.3125 2.3375 16.9875 3.0125C17.6625 3.6875 18 4.51667 18 5.5C18 5.65 17.9792 5.76667 17.9375 5.85C17.8958 5.93333 17.9 6 17.95 6.05C18 6.1 18.0667 6.10417 18.15 6.0625C18.2333 6.02083 18.35 6 18.5 6C19.4833 6 20.3125 6.3375 20.9875 7.0125C21.6625 7.6875 22 8.51667 22 9.5C22 10.4833 21.6625 11.3125 20.9875 11.9875C20.3125 12.6625 19.4833 13 18.5 13C18.1167 13 17.7667 12.95 17.45 12.85C17.1333 12.75 16.8333 12.6 16.55 12.4L12.4 16.55C12.6 16.8333 12.75 17.1333 12.85 17.45C12.95 17.7667 13 18.1167 13 18.5C13 19.4833 12.6625 20.3125 11.9875 20.9875C11.3125 21.6625 10.4833 22 9.5 22ZM9.5 20C9.93333 20 10.2917 19.8583 10.575 19.575C10.8583 19.2917 11 18.9333 11 18.5C11 18.35 10.9792 18.2042 10.9375 18.0625C10.8958 17.9208 10.8333 17.7833 10.75 17.65C10.4667 17.25 10.35 16.8208 10.4 16.3625C10.45 15.9042 10.65 15.5 11 15.15L15.15 11C15.5 10.65 15.9042 10.45 16.3625 10.4C16.8208 10.35 17.25 10.4667 17.65 10.75C17.7833 10.8333 17.9208 10.8958 18.0625 10.9375C18.2042 10.9792 18.35 11 18.5 11C18.9333 11 19.2917 10.8583 19.575 10.575C19.8583 10.2917 20 9.93333 20 9.5C20 9.06667 19.8583 8.70833 19.575 8.425C19.2917 8.14167 18.9333 8 18.5 8C17.9167 8 17.5083 7.97083 17.275 7.9125C17.0417 7.85417 16.8 7.7 16.55 7.45C16.3 7.2 16.1458 6.95833 16.0875 6.725C16.0292 6.49167 16 6.08333 16 5.5C16 5.06667 15.8583 4.70833 15.575 4.425C15.2917 4.14167 14.9333 4 14.5 4C14.0667 4 13.7083 4.14167 13.425 4.425C13.1417 4.70833 13 5.06667 13 5.5C13 5.68333 13.0167 5.8375 13.05 5.9625C13.0833 6.0875 13.15 6.21667 13.25 6.35C13.5333 6.75 13.65 7.17917 13.6 7.6375C13.55 8.09583 13.35 8.5 13 8.85L8.85 13C8.5 13.35 8.09583 13.55 7.6375 13.6C7.17917 13.65 6.75 13.5333 6.35 13.25C6.21667 13.1667 6.07917 13.1042 5.9375 13.0625C5.79583 13.0208 5.65 13 5.5 13C5.06667 13 4.70833 13.1417 4.425 13.425C4.14167 13.7083 4 14.0667 4 14.5C4 14.9333 4.14167 15.2917 4.425 15.575C4.70833 15.8583 5.06667 16 5.5 16C6.08333 16 6.49167 16.0292 6.725 16.0875C6.95833 16.1458 7.2 16.3 7.45 16.55C7.7 16.8 7.85417 17.0417 7.9125 17.275C7.97083 17.5083 8 17.9167 8 18.5C8 18.9333 8.14167 19.2917 8.425 19.575C8.70833 19.8583 9.06667 20 9.5 20Z" fill="#49454F"/>
<path d="M20.0668 24.0667L24.7668 19.3667L23.8335 18.4333L20.0668 22.2L18.1668 20.3L17.2335 21.2333L20.0668 24.0667ZM21.0002 27.6667C20.0779 27.6667 19.2113 27.4917 18.4002 27.1417C17.5891 26.7917 16.8835 26.3167 16.2835 25.7167C15.6835 25.1167 15.2085 24.4111 14.8585 23.6C14.5085 22.7889 14.3335 21.9222 14.3335 21C14.3335 20.0778 14.5085 19.2111 14.8585 18.4C15.2085 17.5889 15.6835 16.8833 16.2835 16.2833C16.8835 15.6833 17.5891 15.2083 18.4002 14.8583C19.2113 14.5083 20.0779 14.3333 21.0002 14.3333C21.9224 14.3333 22.7891 14.5083 23.6002 14.8583C24.4113 15.2083 25.1168 15.6833 25.7168 16.2833C26.3168 16.8833 26.7918 17.5889 27.1418 18.4C27.4918 19.2111 27.6668 20.0778 27.6668 21C27.6668 21.9222 27.4918 22.7889 27.1418 23.6C26.7918 24.4111 26.3168 25.1167 25.7168 25.7167C25.1168 26.3167 24.4113 26.7917 23.6002 27.1417C22.7891 27.4917 21.9224 27.6667 21.0002 27.6667Z" fill="#546431"/>
</svg>
