<svg width="24" height="24" viewBox="0 0 24 24" fill="none" xmlns="http://www.w3.org/2000/svg">
<path d="M6.0001 19H18.0001L16.5751 9H7.4251L6.0001 19ZM12.0001 7C12.2834 7 12.5209 6.90417 12.7126 6.7125C12.9043 6.52083 13.0001 6.28333 13.0001 6C13.0001 5.71667 12.9043 5.47917 12.7126 5.2875C12.5209 5.09583 12.2834 5 12.0001 5C11.7168 5 11.4793 5.09583 11.2876 5.2875C11.0959 5.47917 11.0001 5.71667 11.0001 6C11.0001 6.28333 11.0959 6.52083 11.2876 6.7125C11.4793 6.90417 11.7168 7 12.0001 7ZM14.8251 7H16.5751C17.0751 7 17.5084 7.16667 17.8751 7.5C18.2418 7.83333 18.4668 8.24167 18.5501 8.725L19.9751 18.725C20.0584 19.325 19.9043 19.8542 19.5126 20.3125C19.1209 20.7708 18.6168 21 18.0001 21H6.0001C5.38344 21 4.87927 20.7708 4.4876 20.3125C4.09594 19.8542 3.94177 19.325 4.0251 18.725L5.4501 8.725C5.53344 8.24167 5.75844 7.83333 6.1251 7.5C6.49177 7.16667 6.9251 7 7.4251 7H9.1751C9.1251 6.83333 9.08344 6.67083 9.0501 6.5125C9.01677 6.35417 9.0001 6.18333 9.0001 6C9.0001 5.16667 9.29177 4.45833 9.8751 3.875C10.4584 3.29167 11.1668 3 12.0001 3C12.8334 3 13.5418 3.29167 14.1251 3.875C14.7084 4.45833 15.0001 5.16667 15.0001 6C15.0001 6.18333 14.9834 6.35417 14.9501 6.5125C14.9168 6.67083 14.8751 6.83333 14.8251 7Z" fill="#49454F"/>
</svg>
